<svg width="13" height="32" viewBox="0 0 13 32" fill="none" xmlns="http://www.w3.org/2000/svg">
<path d="M10.1228 24.9512V25.1012H10.2728H11.3678C11.8286 25.1012 12.1995 25.477 12.1995 25.9077V30.061C12.1995 30.508 11.8374 30.8801 11.3803 30.8801H1.00963C0.562603 30.8801 0.190527 30.5181 0.190527 30.061V25.9077C0.190527 25.4606 0.552552 25.0886 1.00963 25.0886H2.1046H2.2546V24.9386V16.5187V16.3687H2.1046H1.00963C0.562602 16.3687 0.190527 16.0066 0.190527 15.5495V11.3962C0.190527 10.9492 0.552553 10.5771 1.00963 10.5771H9.30369C9.75072 10.5771 10.1228 10.9391 10.1228 11.3962V24.9512ZM1.81616 14.5804V14.7304H1.96616H3.07371C3.52074 14.7304 3.89282 15.0925 3.89282 15.5495V25.9203C3.89282 26.3793 3.51957 26.75 3.06461 26.7394L3.06461 26.7394H3.06112H1.96616H1.81616V26.8894V29.0919V29.2419H1.96616H10.3861H10.5361V29.0919V26.8894V26.7394H10.3861H9.2911C8.84407 26.7394 8.47199 26.3773 8.47199 25.9203V12.3779V12.2279H8.32199H1.96616H1.81616V12.3779V14.5804Z" fill="#007F92" stroke="white" stroke-width="0.3"/>
<path d="M10.1231 4.13421C10.1231 6.30423 8.3527 8.0746 6.18268 8.0746C4.01266 8.0746 2.24229 6.30423 2.24229 4.13421C2.24229 1.96419 4.01266 0.193823 6.18268 0.193823C8.3527 0.193823 10.1231 1.96419 10.1231 4.13421ZM8.47227 4.1468C8.47227 2.88089 7.44859 1.85721 6.18268 1.85721C4.91677 1.85721 3.89309 2.88089 3.89309 4.1468C3.89309 5.41271 4.91677 6.43638 6.18268 6.43638C7.44859 6.43638 8.47227 5.41271 8.47227 4.1468Z" fill="#007F92" stroke="white" stroke-width="0.3"/>
</svg>
