<svg width="34" height="34" viewBox="0 0 34 34" fill="none" xmlns="http://www.w3.org/2000/svg">
<path d="M22.9318 22.3129C22.6035 21.7527 22.0767 21.3539 21.4483 21.1899C20.8199 21.0258 20.1654 21.1164 19.6052 21.4448L16.3646 23.3437C16.0648 23.5196 15.7144 23.5681 15.378 23.4803C15.0417 23.3925 14.7596 23.179 14.582 22.876L8.97617 13.4709C8.80042 13.171 8.7519 12.8206 8.83968 12.4843C8.92746 12.1479 9.14091 11.8659 9.44084 11.6901L12.6811 9.79064H12.6812C13.2414 9.46232 13.6402 8.93546 13.8041 8.30708C13.9681 7.67876 13.8776 7.0242 13.5492 6.46407L10.4658 1.20273C10.1374 0.642527 9.6106 0.24375 8.98222 0.0797845C8.35391 -0.0841805 7.69928 0.00639751 7.13921 0.334718L4.92262 1.63381C2.84753 2.84993 1.40102 4.90399 0.953928 7.26924C0.903918 7.53381 1.07785 7.78887 1.34235 7.83882C1.60712 7.88876 1.86199 7.71497 1.91193 7.4504C2.29033 5.44889 3.47924 3.69971 5.19019 2.61258L9.74403 10.3824L8.94797 10.8489C8.42332 11.1564 8.04987 11.6497 7.89639 12.2381C7.74285 12.8263 7.82763 13.4393 8.13687 13.9669L13.7427 23.3721C14.3775 24.455 15.7749 24.8195 16.8577 24.1849L17.6537 23.7183L22.2076 31.4881C18.7486 33.3536 14.3908 32.1534 12.3868 28.7341L2.79297 12.5249C2.25328 11.6042 1.92606 10.6034 1.82031 9.55049C1.79342 9.2826 1.55509 9.08744 1.28648 9.11414C1.01859 9.14103 0.823238 9.38001 0.850131 9.64797C0.970012 10.8414 1.34066 11.9753 1.95283 13.0197L11.5466 29.229C13.0935 31.8682 15.8795 33.34 18.738 33.34C20.166 33.34 21.6123 32.9725 22.9306 32.1999L25.1472 30.9007C25.7075 30.5724 26.1063 30.0456 26.2702 29.4172C26.4342 28.789 26.3437 28.1344 26.0154 27.5742L22.9318 22.3129ZM7.53812 4.69047L6.02896 2.11554L7.63221 1.1759C7.96776 0.979183 8.3597 0.925135 8.73608 1.0232C9.11246 1.1214 9.42795 1.36025 9.6246 1.6958L12.7082 6.95713C12.9049 7.29268 12.9591 7.68469 12.8609 8.061C12.7627 8.43738 12.5238 8.75287 12.1883 8.94952L10.5851 9.88916L7.53812 4.69047ZM25.3269 29.1711C25.2287 29.5474 24.9898 29.8629 24.6543 30.0595L23.051 30.9992L18.495 23.2256L20.0982 22.286C20.4338 22.0893 20.8259 22.0351 21.2021 22.1333C21.5785 22.2315 21.894 22.4704 22.0906 22.8059L25.1742 28.0672C25.3709 28.4027 25.4251 28.7947 25.3269 29.1711Z" fill="#007F92"/>
<path d="M31.035 4.2212C29.4731 2.67128 27.4058 1.82007 25.2071 1.82007C25.1855 1.82007 25.1637 1.8202 25.1422 1.82033C20.6087 1.85478 16.9257 5.57199 16.9321 10.1065C16.9364 13.1338 18.5823 15.9008 21.2343 17.3541V19.128C21.2343 19.4421 21.4115 19.7192 21.6966 19.8511C21.8052 19.9013 21.9197 19.9259 22.0331 19.9259C22.2174 19.9259 22.3987 19.8609 22.5468 19.735L24.2226 18.3105C25.88 18.5073 27.5815 18.194 29.0447 17.4266C29.2831 17.3015 29.375 17.0069 29.25 16.7684C29.125 16.53 28.8302 16.4382 28.5919 16.5632C27.5557 17.1066 26.385 17.3939 25.2064 17.3939C24.8951 17.3939 24.5802 17.3738 24.2706 17.3341C24.047 17.3054 23.8214 17.3721 23.6511 17.5167L22.2093 18.7423V17.2475C22.2093 16.9523 22.0477 16.6831 21.7874 16.5448C19.3978 15.2753 17.911 12.8078 17.9071 10.1051C17.9015 6.10484 21.1504 2.82567 25.1496 2.79526C25.1687 2.79507 25.1878 2.795 25.2068 2.795C27.1465 2.795 28.9704 3.546 30.3482 4.91326C31.7396 6.29414 32.5059 8.13415 32.5059 10.0944C32.5059 12.0728 31.7274 13.9248 30.3139 15.3093C30.1216 15.4977 30.1184 15.8065 30.3067 15.9987C30.4952 16.191 30.8038 16.1943 30.9961 16.0059C32.5985 14.4364 33.4809 12.337 33.4809 10.0944C33.4809 7.87238 32.6123 5.78655 31.035 4.2212Z" fill="#007F92"/>
<path d="M28.9123 6.7804H21.5002C21.2309 6.7804 21.0127 6.9986 21.0127 7.26786C21.0127 7.53712 21.2309 7.75533 21.5002 7.75533H28.9123C29.1816 7.75533 29.3998 7.53712 29.3998 7.26786C29.3998 6.9986 29.1816 6.7804 28.9123 6.7804Z" fill="#007F92"/>
<path d="M28.9126 9.60278H24.8932C24.624 9.60278 24.4058 9.82099 24.4058 10.0902C24.4058 10.3595 24.624 10.5777 24.8932 10.5777H28.9126C29.1818 10.5777 29.4001 10.3595 29.4001 10.0902C29.4001 9.82099 29.1818 9.60278 28.9126 9.60278Z" fill="#007F92"/>
<path d="M21.5002 10.5778H22.6234C22.8926 10.5778 23.1108 10.3596 23.1108 10.0904C23.1108 9.82111 22.8926 9.60291 22.6234 9.60291H21.5002C21.2309 9.60291 21.0127 9.82111 21.0127 10.0904C21.0127 10.3596 21.2309 10.5778 21.5002 10.5778Z" fill="#007F92"/>
<path d="M21.5002 13.4003H28.9123C29.1816 13.4003 29.3998 13.1821 29.3998 12.9129C29.3998 12.6436 29.1816 12.4254 28.9123 12.4254H21.5002C21.2309 12.4254 21.0127 12.6436 21.0127 12.9129C21.0126 13.1821 21.2309 13.4003 21.5002 13.4003Z" fill="#007F92"/>
</svg>
