<svg width="31" height="38" viewBox="0 0 31 38" fill="none" xmlns="http://www.w3.org/2000/svg">
<path d="M24.7997 25.2809C24.4932 24.6655 23.9654 24.2064 23.3135 23.9879C22.6615 23.7694 21.9636 23.818 21.3484 24.1245L17.7887 25.8972C17.4593 26.0613 17.0857 26.0874 16.7368 25.9704C16.3879 25.8535 16.1053 25.6077 15.9394 25.2749L10.6948 14.9372C10.5308 14.6077 10.5047 14.2341 10.6217 13.8852C10.7386 13.5362 10.9843 13.2536 11.3138 13.0896L14.8731 11.3163L14.8732 11.3164C15.4885 11.0099 15.9477 10.482 16.1661 9.83009C16.3845 9.17822 16.336 8.48031 16.0294 7.86502L13.151 2.08574C12.8444 1.47038 12.3167 1.01126 11.6647 0.792853C11.0129 0.574453 10.3149 0.623028 9.69967 0.929528L7.26486 2.14224C4.9855 3.2775 3.30979 5.34308 2.66735 7.80927C2.59549 8.08513 2.76085 8.36706 3.03665 8.43885C3.31273 8.51065 3.59444 8.34541 3.66623 8.06955C4.20993 5.98263 5.59161 4.22056 7.47707 3.19535L11.7281 11.73L10.8537 12.1656C10.2774 12.4526 9.84746 12.9468 9.64301 13.5572C9.43849 14.1676 9.48394 14.8211 9.77262 15.4007L15.0172 25.7385C15.6098 26.9281 17.0596 27.4136 18.249 26.8211L19.1235 26.3856L23.3745 34.9203C19.5867 36.6419 15.07 35.0607 13.1992 31.3047L4.23174 13.493C3.72792 12.4817 3.4543 11.401 3.41835 10.2812C3.40922 9.99633 3.17152 9.77305 2.88588 9.78192C2.60097 9.79105 2.37743 10.0294 2.38656 10.3144C2.42732 11.5837 2.73724 12.808 3.30872 13.9552L12.2761 31.767C13.7201 34.6661 16.5571 36.4211 19.5765 36.6268C21.0848 36.7295 22.6389 36.4455 24.0871 35.7242L26.5219 34.5114C27.1373 34.2049 27.5964 33.6771 27.8148 33.0252C28.0332 32.3734 27.9847 31.6755 27.6782 31.0601L24.7997 25.2809ZM9.80762 5.55911L8.39881 2.73069L10.1599 1.85352C10.5285 1.66988 10.9464 1.64099 11.3369 1.77165C11.7274 1.90246 12.0434 2.17745 12.227 2.54603L15.1055 8.32532C15.2892 8.69391 15.3182 9.11187 15.1874 9.5023C15.0566 9.89279 14.7816 10.2089 14.413 10.3924L12.652 11.2696L9.80762 5.55911ZM26.8361 32.6973C26.7053 33.0877 26.4303 33.4038 26.0617 33.5874L24.3006 34.4646L20.0475 25.9257L21.8085 25.0485C22.1772 24.865 22.5952 24.8359 22.9856 24.9667C23.376 25.0975 23.6921 25.3725 23.8757 25.7411L26.7542 31.5203C26.9379 31.8889 26.9669 32.3068 26.8361 32.6973Z" fill="#007F92"/>
</svg>
