<svg width="33" height="33" viewBox="0 0 33 33" fill="none" xmlns="http://www.w3.org/2000/svg">
<path d="M16.3101 0.958984C7.59159 0.958984 0.458252 7.96102 0.458252 16.5191C0.458252 19.4515 1.31181 22.2643 2.83603 24.7779C2.22634 26.9324 1.06794 31.0019 1.06794 31.0618C1.00697 31.3012 1.06794 31.4807 1.25084 31.6602C1.43375 31.8398 1.61666 31.8398 1.86053 31.7799L8.14031 29.8648C10.5791 31.3012 13.4446 32.0792 16.3101 32.0792C25.0286 32.0792 32.162 25.0771 32.162 16.5191C32.162 7.96102 25.0286 0.958984 16.3101 0.958984ZM16.3101 30.8822C13.5665 30.8822 10.8839 30.1042 8.56709 28.6679C8.44515 28.6081 8.38418 28.5482 8.26224 28.5482C8.20128 28.5482 8.14031 28.5482 8.07934 28.5482L2.59216 30.2239C3.01894 28.7876 3.68959 26.2142 4.11637 24.7779C4.17734 24.5983 4.11637 24.4188 4.0554 24.2991C2.47022 22.0249 1.67763 19.3319 1.67763 16.5191C1.67763 8.61933 8.26224 2.15591 16.3101 2.15591C24.358 2.15591 30.9426 8.61933 30.9426 16.5191C30.9426 24.4188 24.358 30.8822 16.3101 30.8822Z" fill="#009BDE"/>
<path d="M26.6748 20.1692C25.5774 19.5708 24.6019 18.9125 23.8703 18.4935C23.3215 18.1345 22.9557 17.8951 22.6509 17.7754C21.8583 17.4163 21.2486 17.6557 21.0047 17.8951C21.0047 17.8951 20.9438 17.9549 20.9438 18.0148C20.1512 19.2117 19.0537 20.4086 18.7489 20.4685C18.3831 20.4086 16.6759 19.4511 15.0298 18.0746C13.3227 16.6383 12.2252 15.3217 12.0423 14.424C13.1398 13.2869 13.5665 12.6286 13.5665 11.7907C13.5665 10.9529 11.6155 7.54162 11.2497 7.18255C10.8839 6.82347 10.0913 6.76362 8.87196 7.00301C8.75002 7.00301 8.62808 7.06285 8.56711 7.18255C8.44518 7.30224 4.96996 10.7733 6.61612 15.0224C8.44518 19.6306 13.0788 25.0168 18.9928 25.8546C19.6634 25.9743 20.2731 25.9743 20.8828 25.9743C24.358 25.9743 26.4309 24.2388 26.9797 20.8275C27.0406 20.5283 26.9187 20.2889 26.6748 20.1692ZM19.1147 24.5979C12.8959 23.7002 8.93292 17.5958 7.71355 14.4838C6.49418 11.4316 8.75002 8.67871 9.29874 8.08024C9.72552 8.0204 10.2133 7.96055 10.3962 8.0204C10.823 8.55902 12.2252 11.2521 12.2862 11.7309C12.2862 12.0301 12.1643 12.5089 10.9449 13.7058C10.8839 13.8255 10.823 13.9452 10.823 14.1247C10.823 17.2368 17.5295 21.6055 18.7489 21.6055C19.7854 21.6055 21.1267 19.87 21.9193 18.7928C21.9802 18.7928 22.0412 18.7928 22.1631 18.8526C22.407 18.9723 22.7728 19.2117 23.2606 19.5109C23.8703 19.9298 24.7238 20.4685 25.7603 21.0071C25.2116 23.1616 23.9922 25.316 19.1147 24.5979Z" fill="#009BDE"/>
</svg>
