<svg width="26" height="35" viewBox="0 0 26 35" fill="none" xmlns="http://www.w3.org/2000/svg">
<path d="M5.42611 21.1594C5.42611 21.2547 5.52234 21.2547 5.52234 21.35C5.52234 21.4453 5.61856 21.4453 5.61856 21.5405C11.0071 30.8785 20.4371 36.405 22.1691 33.5465L24.3822 29.4492C24.5747 29.0681 24.5747 28.6869 24.286 28.3058C23.9973 27.7341 23.7087 27.7341 22.0729 26.6859C21.2069 26.0189 20.3408 25.3519 19.7635 24.8755C19.1861 24.3991 18.4164 24.3991 17.9352 24.7802L17.0692 25.6378C16.7805 25.9237 16.2994 26.1142 15.9145 26.1142C14.5674 26.1142 12.1618 22.5887 10.7184 20.4924C10.3335 19.9207 10.0449 19.349 9.85242 19.0631C9.65997 18.7773 9.3713 18.2056 9.08263 17.6339C7.92794 15.347 6.09968 11.4403 6.77325 10.3922C6.9657 10.0111 7.35059 9.7252 7.73549 9.62992L8.9864 9.34406C9.56375 9.15349 9.94864 8.4865 9.85242 7.72422C9.56375 6.67608 9.46752 5.62795 9.3713 4.57981C9.27507 2.67411 9.3713 2.38826 8.9864 1.91183C8.79395 1.53069 8.40906 1.24484 8.02416 1.24484L3.30918 0.958984C-0.0586556 0.958984 -0.0586554 11.8215 5.42611 21.1594Z" stroke="#009BDE" stroke-miterlimit="10" stroke-linecap="round" stroke-linejoin="round"/>
</svg>
