<svg width="20" height="31" viewBox="0 0 20 31" fill="none" xmlns="http://www.w3.org/2000/svg">
<path d="M18.8891 4.73201C18.3629 3.68045 17.6789 2.83921 16.8371 2.10311C15.9952 1.4196 14.9955 0.893824 13.8906 0.525779C12.7857 0.210311 11.6281 0 10.3653 0C7.52407 0.0525779 5.15636 0.841246 3.3148 2.31343C1.47324 3.89076 0.368311 6.09903 0.105232 8.99082L0 9.77948L7.41884 10.2527L7.47145 9.46402C7.52407 8.72793 7.78715 8.09699 8.31331 7.57121C8.78685 7.09801 9.47086 6.83512 10.4706 6.83512C11.0493 6.83512 11.5229 6.99286 11.8912 7.30832C12.2595 7.62379 12.4173 8.04441 12.4173 8.67535C12.4173 8.93824 12.3121 9.20113 12.1543 9.51659C11.9438 9.83206 11.6281 10.2527 11.2598 10.6207C10.8389 11.0414 10.3653 11.5146 9.78655 11.9878C9.15516 12.5135 8.52377 13.1445 7.78715 13.7754C7.20837 14.3012 6.84006 14.8795 6.57698 15.5631C6.36652 16.194 6.20867 16.9301 6.20867 17.7713V20.2425H13.4697V18.3497C13.4697 18.0342 13.5223 17.7187 13.6801 17.4033C13.838 17.0878 14.1537 16.7198 14.6272 16.3517C15.5743 15.6156 16.3635 14.9321 16.9423 14.3538C17.5737 13.7228 18.0999 13.0919 18.4682 12.461C18.8891 11.83 19.1522 11.1465 19.3626 10.463C19.5205 9.83206 19.6257 9.09597 19.6257 8.25473C19.6783 6.99286 19.4153 5.78357 18.8891 4.73201ZM11.8912 18.3497V18.6651H7.78715V17.7713C7.78715 17.0878 7.89238 16.562 8.05023 16.1414C8.20808 15.7208 8.47115 15.3002 8.89208 14.9321C9.57609 14.2486 10.2075 13.6702 10.7863 13.197C11.4176 12.6713 11.9438 12.1981 12.3647 11.7249C12.8383 11.2517 13.2066 10.7785 13.4697 10.3578C13.7854 9.83206 13.9432 9.30628 13.9432 8.72793C13.9432 7.67637 13.5749 6.83512 12.8909 6.20419C12.2069 5.62583 11.4176 5.31037 10.4179 5.31037C8.99731 5.31037 7.89238 5.73099 7.15576 6.51966C6.57698 7.09801 6.20867 7.8341 5.99821 8.62277L1.73632 8.35988C2.10463 6.30934 2.94649 4.67943 4.3145 3.5753C5.89298 2.26085 7.89238 1.62991 10.3653 1.62991C11.4176 1.62991 12.47 1.78765 13.417 2.05054C14.3641 2.31343 15.1534 2.78663 15.8374 3.31241C16.5214 3.89076 17.1002 4.57427 17.4685 5.41552C17.8894 6.25677 18.0472 7.20317 18.0472 8.3073C18.0472 8.99082 17.9946 9.56917 17.8368 10.095C17.7315 10.6207 17.4685 11.1465 17.1528 11.6197C16.8371 12.1455 16.3635 12.6713 15.8374 13.2496C15.2586 13.828 14.522 14.4589 13.6801 15.1424C12.9961 15.6682 12.5226 16.194 12.2595 16.7723C12.049 17.2981 11.8912 17.8239 11.8912 18.3497Z" fill="#009BDE"/>
<path d="M12.8909 23.0818C12.5226 22.7138 12.049 22.3983 11.5229 22.188C10.4705 21.7674 9.26038 21.7674 8.20806 22.188C7.6819 22.3983 7.20836 22.7138 6.84005 23.0818C6.47174 23.4499 6.15604 23.9231 5.94558 24.4489C5.73511 24.9747 5.62988 25.553 5.62988 26.1314C5.62988 26.7097 5.73511 27.2881 5.94558 27.8139C6.15604 28.3396 6.47174 28.8128 6.84005 29.1809C7.20836 29.5489 7.6819 29.8644 8.20806 30.0747C8.73422 30.285 9.31299 30.3902 9.89177 30.3902C10.4705 30.3902 11.0493 30.285 11.5755 30.0747C12.1016 29.8644 12.5752 29.5489 12.9435 29.1809C13.3118 28.8128 13.6275 28.3396 13.838 27.8139C14.0484 27.2881 14.1537 26.7097 14.1537 26.1314C14.1537 25.553 14.0484 24.9747 13.838 24.4489C13.5749 23.9231 13.2592 23.4499 12.8909 23.0818ZM12.5226 26.1314C12.5226 26.4994 12.4699 26.8675 12.3121 27.1829C12.1542 27.4984 11.9964 27.8139 11.7333 28.0242C11.4702 28.2871 11.2072 28.4448 10.8915 28.6025C10.2075 28.8654 9.41823 28.8654 8.78684 28.6025C8.47114 28.4448 8.15544 28.2871 7.94498 28.0242C7.6819 27.7613 7.52405 27.4984 7.36621 27.1829C7.20836 26.8675 7.15574 26.4994 7.15574 26.1314C7.15574 25.7633 7.20836 25.3953 7.36621 25.0798C7.52405 24.7643 7.6819 24.4489 7.94498 24.2386C8.20806 23.9757 8.47114 23.8179 8.78684 23.6602C9.10253 23.5025 9.47084 23.4499 9.83915 23.4499C10.2075 23.4499 10.5758 23.5025 10.8915 23.6602C11.2072 23.8179 11.5229 23.9757 11.7333 24.2386C11.9964 24.5015 12.1542 24.7643 12.3121 25.0798C12.4699 25.3953 12.5226 25.7633 12.5226 26.1314Z" fill="#009BDE"/>
</svg>
