<svg width="13" height="32" viewBox="0 0 13 32" fill="none" xmlns="http://www.w3.org/2000/svg">
<path fill-rule="evenodd" clip-rule="evenodd" d="M10.1252 11.8964V25.7513H11.5202C11.9007 25.7513 12.2018 26.0625 12.2018 26.4078V30.5612C12.2018 30.9266 11.9057 31.2303 11.5327 31.2303H1.16203C0.796567 31.2303 0.49292 30.9341 0.49292 30.5612V26.4078C0.49292 26.0424 0.789053 25.7387 1.16203 25.7387H2.55699V16.7188H1.16203C0.796566 16.7188 0.49292 16.4227 0.49292 16.0497V11.8964C0.49292 11.5309 0.789054 11.2273 1.16203 11.2273H9.45608C9.82154 11.2273 10.1252 11.5234 10.1252 11.8964ZM1.81855 12.5781V15.3806H3.2261C3.59156 15.3806 3.89521 15.6767 3.89521 16.0497V26.4204C3.89521 26.7973 3.58922 27.0981 3.22049 27.0895H1.81855V29.8921H10.8385V27.0895H9.44349C9.07803 27.0895 8.77439 26.7934 8.77439 26.4204V12.5781H1.81855Z" fill="#009BDE"/>
<path fill-rule="evenodd" clip-rule="evenodd" d="M10.1252 4.63438C10.1252 6.72156 8.42201 8.42477 6.33483 8.42477C4.24765 8.42477 2.54443 6.72156 2.54443 4.63438C2.54443 2.54721 4.24765 0.843994 6.33483 0.843994C8.42201 0.843994 10.1252 2.54721 10.1252 4.63438ZM8.77442 4.64697C8.77442 3.29822 7.68358 2.20738 6.33483 2.20738C4.98608 2.20738 3.89524 3.29822 3.89524 4.64697C3.89524 5.99572 4.98608 7.08656 6.33483 7.08656C7.68358 7.08656 8.77442 5.99572 8.77442 4.64697Z" fill="#009BDE"/>
</svg>
