<svg width="34" height="26" viewBox="0 0 34 26" fill="none" xmlns="http://www.w3.org/2000/svg">
<path fill-rule="evenodd" clip-rule="evenodd" d="M1.45825 0.791626C1.04863 0.791626 0.715712 1.12 0.708375 1.52787L0.708255 1.53946L0.708252 1.54163V21.6303C0.708252 23.592 2.27656 25.2083 4.23592 25.2083H29.6181C31.5774 25.2083 33.1458 23.592 33.1458 21.6303V1.552C33.1462 1.51757 33.1443 1.48297 33.14 1.44845C33.1251 1.32789 33.0815 1.2162 33.0164 1.12039C32.9741 1.05814 32.923 1.00309 32.8652 0.956697C32.7367 0.85343 32.5735 0.791634 32.3958 0.791626H32.3958H1.45829H1.45825ZM19.0884 13.8156L31.6458 3.16156V21.6303C31.6458 22.7891 30.7237 23.7083 29.6181 23.7083H4.23592C3.13027 23.7083 2.20825 22.7891 2.20825 21.6303V3.16149L14.7656 13.8156C14.7902 13.8365 14.816 13.8557 14.843 13.8732C16.1321 14.7083 17.8086 14.731 19.0385 13.8545C19.0557 13.8423 19.0723 13.8293 19.0884 13.8156ZM3.50154 2.29163L15.6968 12.6385C16.4985 13.1377 17.4698 13.1148 18.1442 12.6497L30.3525 2.29163H3.50154Z" fill="#009BDE"/>
</svg>
