<svg width="29" height="32" viewBox="0 0 29 32" fill="none" xmlns="http://www.w3.org/2000/svg">
<path fill-rule="evenodd" clip-rule="evenodd" d="M0 5.29183C0 4.05402 1.00519 3.05058 2.24516 3.05058H26.7548C27.9948 3.05058 29 4.05402 29 5.29183V29.7588C29 30.9966 27.9948 32 26.7548 32H2.24516C1.00519 32 0 30.9966 0 29.7588V5.29183ZM2.24516 4.54475C1.83184 4.54475 1.49677 4.87923 1.49677 5.29183V29.7588C1.49677 30.1714 1.83184 30.5058 2.24516 30.5058H26.7548C27.1682 30.5058 27.5032 30.1714 27.5032 29.7588V5.29183C27.5032 4.87923 27.1682 4.54475 26.7548 4.54475H2.24516Z" fill="#00A5E1"/>
<path fill-rule="evenodd" clip-rule="evenodd" d="M20.6118 0C21.0252 0 21.3602 0.33448 21.3602 0.747082V6.84825C21.3602 7.26085 21.0252 7.59533 20.6118 7.59533C20.1985 7.59533 19.8634 7.26085 19.8634 6.84825V0.747082C19.8634 0.33448 20.1985 0 20.6118 0Z" fill="#00A5E1"/>
<path fill-rule="evenodd" clip-rule="evenodd" d="M8.38817 0C8.8015 0 9.13656 0.33448 9.13656 0.747082V6.84825C9.13656 7.26085 8.8015 7.59533 8.38817 7.59533C7.97485 7.59533 7.63979 7.26085 7.63979 6.84825V0.747082C7.63979 0.33448 7.97485 0 8.38817 0Z" fill="#00A5E1"/>
<path fill-rule="evenodd" clip-rule="evenodd" d="M0 12.9494C0 12.5368 0.335064 12.2023 0.748387 12.2023H28.2516C28.6649 12.2023 29 12.5368 29 12.9494C29 13.362 28.6649 13.6965 28.2516 13.6965H0.748387C0.335064 13.6965 0 13.362 0 12.9494Z" fill="#00A5E1"/>
<rect x="5.34253" y="16" width="3.20559" height="3.2" fill="#00A5E1"/>
<rect x="10.6853" y="16" width="3.20559" height="3.2" fill="#00A5E1"/>
<rect x="16.0278" y="16" width="3.20559" height="3.2" fill="#00A5E1"/>
<rect x="21.3706" y="16" width="3.20559" height="3.2" fill="#00A5E1"/>
<rect x="5.34253" y="21.334" width="3.20559" height="3.2" fill="#00A5E1"/>
<rect x="10.6853" y="21.334" width="3.20559" height="3.2" fill="#00A5E1"/>
<rect x="16.0278" y="21.334" width="3.20559" height="3.2" fill="#00A5E1"/>
<rect x="21.3706" y="21.334" width="3.20559" height="3.2" fill="#00A5E1"/>
</svg>
