<svg width="33" height="35" viewBox="0 0 33 35" fill="none" xmlns="http://www.w3.org/2000/svg">
<path d="M32.8043 5.31756C32.7073 5.1193 32.6103 4.92119 32.4163 4.72292C32.1254 4.52466 32.0285 4.82186 31.8345 5.02012C30.8648 6.11056 29.798 7.10197 28.8283 8.09328C28.2464 8.68807 27.4706 8.68807 26.8888 8.09328C26.5009 7.69676 26.016 7.20105 25.6281 6.80453C25.5311 6.60627 25.3372 6.50714 25.2402 6.30887C25.0463 5.71409 25.2402 5.31756 25.6281 4.82191L28.7313 1.64977C29.1192 1.25324 29.0222 0.955947 28.5374 0.757685C27.6646 0.460292 26.6948 0.460098 25.7251 0.559229C22.0401 1.25315 19.8096 5.02032 20.8764 8.68816C20.9733 8.88642 20.8764 9.08469 20.7794 9.18382C19.4217 10.5717 18.0641 11.9593 16.8034 13.248C14.0881 16.1228 11.2759 18.8985 8.56057 21.6742C8.36662 21.8724 8.26964 21.9715 7.97872 21.8724C7.6878 21.7733 7.2999 21.6742 7.00897 21.6742C4.48763 21.3768 2.45116 22.269 1.09351 24.4499C-0.0701871 26.1351 -0.264125 27.9195 0.317724 29.9021C0.414698 30.1004 0.511673 30.2987 0.802597 30.1995C0.996547 30.1995 1.09352 30.1004 1.19049 29.9021C2.25721 28.9108 3.22696 27.8202 4.19671 26.8289C4.77856 26.2341 5.55436 26.2341 6.13621 26.8289C6.52411 27.2255 6.91199 27.6222 7.39687 28.0187C8.07569 28.7126 8.07569 29.4064 7.39687 30.1003C6.33014 31.1907 5.36041 32.182 4.39066 33.2724C4.00276 33.669 4.09973 34.0656 4.58461 34.1648C5.16645 34.2639 5.7483 34.3631 6.33015 34.4622C6.62108 34.4622 6.91199 34.4621 7.20292 34.363C11.0819 33.7682 13.5063 29.7039 12.1486 26.0361C12.0517 25.8378 12.1486 25.6396 12.2456 25.5404C16.3185 21.3769 20.3915 17.2133 24.4644 13.0498C24.6584 12.8516 24.7553 12.8515 24.9493 12.9506C26.016 13.3471 26.9858 13.4463 28.1495 13.248C31.5436 12.455 33.677 8.98541 32.8043 5.31756ZM31.9315 8.58893C30.8647 11.662 27.7616 13.1489 24.8523 11.9593C24.4644 11.761 24.1735 11.8604 23.8826 12.1577C19.7127 16.4204 15.5427 20.7821 11.2759 25.0448C10.9849 25.3422 10.888 25.6396 11.0819 26.0361C11.8577 28.217 11.4698 30.1995 10.0152 31.8847C8.75452 33.2725 7.10594 33.7682 5.26342 33.5699C6.1362 32.6777 7.00897 31.7856 7.88174 30.8934C8.56056 30.2986 8.75452 29.5055 8.46359 28.6133C8.36662 28.2168 8.07569 27.9194 7.88174 27.622C7.49384 27.1264 7.10595 26.7298 6.62108 26.3333C5.65133 25.342 4.48762 25.342 3.51788 26.3333C2.6451 27.1263 1.86932 28.0185 0.996544 28.8116C0.899569 28.9107 0.899572 28.9109 0.802597 29.01C0.608648 28.1178 0.705619 27.2255 0.996544 26.3333C2.06327 23.3594 5.06948 21.8725 7.97872 22.9629C8.26964 23.0621 8.56057 23.0621 8.75452 22.7647C13.0214 18.4029 17.2883 14.0411 21.5552 9.58024C21.8461 9.28285 21.8461 9.08469 21.7491 8.68816C20.4885 5.31771 22.6219 1.74885 26.113 1.35233C26.5979 1.25319 27.0827 1.35233 27.6646 1.35233C27.5676 1.55059 27.4706 1.64977 27.3737 1.64977C26.5979 2.44281 25.8221 3.23577 25.0463 4.02881C24.0765 5.02012 24.0765 6.30887 25.0463 7.30018C25.4342 7.69671 25.8221 8.09318 26.21 8.48971C27.1797 9.48102 28.4404 9.48102 29.4101 8.48971C30.1859 7.69666 30.9617 6.90371 31.7375 6.11066C31.8345 6.01153 31.8345 5.91235 32.0285 5.81322C32.2224 6.90366 32.2224 7.79589 31.9315 8.58893Z" fill="#009BDE"/>
</svg>
