<svg width="155" height="55" viewBox="0 0 155 55" fill="none" xmlns="http://www.w3.org/2000/svg">
<g clip-path="url(#clip0)">
<path d="M28.1889 29.7H26.2352V34.7875H28.1889C29.3053 34.7875 30.2822 34.5125 30.8404 34.1C31.5381 33.6875 31.8172 33 31.8172 32.175C31.8172 31.35 31.5381 30.6625 30.8404 30.25C30.2822 29.8375 29.3053 29.7 28.1889 29.7ZM27.7703 18.2875H26.2352V22.825H27.7703C28.7471 22.825 29.4449 22.6875 29.8635 22.275C30.4217 21.8625 30.5613 21.3125 30.5613 20.625C30.5613 19.9375 30.2822 19.3875 29.8635 18.975C29.4449 18.425 28.6076 18.2875 27.7703 18.2875ZM15.2109 42.625V10.725H30.7008C34.05 10.725 36.5619 11.55 38.5156 13.0625C40.3297 14.575 41.3065 16.775 41.3065 19.525C41.3065 21.3125 40.8879 22.6875 40.0506 23.925C39.2133 25.025 37.9574 25.85 36.2828 26.125C38.5156 26.5375 40.1901 27.3625 41.167 28.7375C42.2834 29.975 42.8416 31.625 42.8416 33.825C42.8416 36.85 41.8647 39.05 39.7715 40.5625C37.6783 41.9375 34.7477 42.625 30.7008 42.625H15.2109ZM114.709 42.625V10.725H136.479V19.3875H126.152V22.4125H135.502V30.6625H126.152V33.9625H136.758V42.625H114.709ZM75.9147 34.2375C76.752 34.2375 77.3102 34.1 77.8684 33.825C78.287 33.55 78.5661 33.1375 78.5661 32.5875C78.5661 31.625 77.4498 31.075 75.0774 30.525C74.3797 30.3875 73.8215 30.25 73.4028 30.1125C71.0305 29.5625 69.0768 28.4625 67.8209 26.95C66.5649 25.4375 65.8672 23.65 65.8672 21.45C65.8672 18.0125 67.1231 15.2625 69.635 13.0625C72.1469 10.8625 75.3565 9.7625 79.4034 9.7625C81.2176 9.7625 83.1713 10.0375 84.8459 10.45C86.66 10.8625 88.4741 11.6875 90.2883 12.65L86.7995 21.0375C85.6832 20.2125 84.5668 19.6625 83.4504 19.1125C82.334 18.7 81.2176 18.425 80.1012 18.425C79.2639 18.425 78.7057 18.5625 78.1475 18.8375C77.7289 19.1125 77.4498 19.525 77.4498 19.9375C77.4498 20.9 79.1243 21.5875 82.334 22.275C82.8922 22.4125 83.3108 22.55 83.5899 22.55C85.8227 23.1 87.6368 24.0625 88.8928 25.575C90.1487 27.0875 90.8465 29.0125 90.8465 31.075C90.8465 34.65 89.5905 37.5375 86.9391 39.7375C84.2877 41.9375 80.9385 43.0375 76.752 43.0375C74.6588 43.0375 72.426 42.7625 70.3327 42.075C68.2395 41.525 66.0067 40.5625 63.9135 39.4625L67.6813 30.525C69.3559 31.625 70.8909 32.45 72.1469 33C73.5424 34.1 74.7983 34.2375 75.9147 34.2375ZM126.571 0C115.826 0 106.616 5.9125 101.871 14.7125C97.2657 5.9125 87.9159 0 77.3102 0C66.5649 0 57.2151 5.9125 52.61 14.7125C47.8653 5.9125 38.6551 0 27.9098 0C12.5594 0 0 12.375 0 27.5C0 42.625 12.5594 55 27.9098 55C38.6551 55 47.8653 49.0875 52.61 40.2875C57.2151 49.0875 66.5649 55 77.3102 55C87.9159 55 97.2657 49.0875 101.871 40.2875C106.616 49.0875 115.826 55 126.571 55C141.921 55 154.481 42.625 154.481 27.5C154.481 12.375 141.921 0 126.571 0Z" fill="#00A5E1"/>
<path d="M26.2353 34.7871V29.6996H28.189C29.3054 29.6996 30.2822 29.9746 30.8404 30.3871C31.5382 30.7996 31.8173 31.4871 31.8173 32.3121C31.8173 33.1371 31.5382 33.6871 30.8404 34.2371C30.2822 34.6496 29.3054 34.9246 28.189 34.9246H26.2353V34.7871ZM26.2353 22.8246V18.2871H27.7704C28.7472 18.2871 29.4449 18.4246 29.8636 18.8371C30.4218 19.2496 30.5613 19.7996 30.5613 20.4871C30.5613 21.1746 30.2822 21.7246 29.8636 22.1371C29.3054 22.5496 28.6077 22.6871 27.7704 22.6871H26.2353V22.8246ZM30.8404 10.7246H15.2109V42.6246H30.7009C34.7478 42.6246 37.6783 41.7996 39.7716 40.2871C41.8648 38.7746 42.8417 36.5746 42.8417 33.5496C42.8417 31.4871 42.2835 29.6996 41.1671 28.4621C40.0507 27.2246 38.5156 26.3996 36.2829 25.8496C37.9574 25.4371 39.0738 24.7496 40.0507 23.6496C40.888 22.5496 41.3066 21.0371 41.3066 19.2496C41.3066 16.4996 40.3298 14.4371 38.5156 12.7871C36.7015 11.4121 34.0501 10.7246 30.8404 10.7246Z" fill="white"/>
<path d="M79.4034 9.90039C75.3565 9.90039 72.1468 11.0004 69.6349 13.2004C67.1231 15.4004 65.8671 18.1504 65.8671 21.5879C65.8671 23.7879 66.5649 25.7129 67.8208 27.0879C69.0767 28.6004 71.0304 29.5629 73.4028 30.2504C73.8214 30.3879 74.3796 30.5254 75.0774 30.6629C77.3101 31.0754 78.5661 31.7629 78.5661 32.7254C78.5661 33.2754 78.287 33.6879 77.8683 33.9629C77.4497 34.2379 76.7519 34.3754 75.9147 34.3754C74.7983 34.3754 73.5423 34.1004 72.2864 33.5504C71.0304 33.0004 69.4954 32.1754 67.8208 31.0754L64.053 39.8754C66.1462 41.1129 68.2394 41.9379 70.4722 42.4879C72.5655 43.0379 74.7983 43.4504 76.8915 43.4504C81.078 43.4504 84.4271 42.3504 87.0786 40.1504C89.73 37.9504 90.9859 35.0629 90.9859 31.4879C90.9859 29.2879 90.2882 27.5004 89.0323 25.9879C87.7763 24.4754 85.9622 23.5129 83.7294 22.9629C83.4503 22.9629 83.0317 22.8254 82.4735 22.6879C79.2638 22.0004 77.5892 21.1754 77.5892 20.3504C77.5892 19.9379 77.8683 19.5254 78.287 19.2504C78.7056 18.9754 79.4034 18.8379 80.2407 18.8379C81.3571 18.8379 82.4735 19.1129 83.5899 19.5254C84.7062 19.9379 85.8226 20.6254 86.939 21.4504L90.4278 13.0629C88.6136 12.1004 86.7995 11.4129 84.9853 10.8629C83.1712 10.1754 81.2175 9.90039 79.4034 9.90039Z" fill="white"/>
<path d="M136.479 10.7246H114.709V42.6246H136.758V33.9621H126.153V30.6621H135.502V22.4121H126.153V19.3871H136.479V10.7246Z" fill="white"/>
</g>
<defs>
<clipPath id="clip0">
<rect width="154.481" height="55" fill="white"/>
</clipPath>
</defs>
</svg>
