<svg width="51" height="51" viewBox="0 0 51 51" fill="none" xmlns="http://www.w3.org/2000/svg">
<path d="M23.9973 37.6276C23.9981 37.6284 23.9989 37.629 23.9996 37.6297C24.0484 37.6783 24.0996 37.7246 24.153 37.7684C24.1777 37.7887 24.2037 37.8062 24.2291 37.8253C24.2592 37.8478 24.2887 37.8712 24.3201 37.8921C24.3503 37.9124 24.3818 37.93 24.4129 37.9485C24.4413 37.9654 24.4691 37.9832 24.4983 37.9989C24.5299 38.0158 24.5626 38.0303 24.595 38.0455C24.6255 38.0599 24.6554 38.0751 24.6867 38.0881C24.7181 38.1011 24.7502 38.1116 24.782 38.123C24.8156 38.135 24.8487 38.1479 24.883 38.1583C24.9148 38.1679 24.9473 38.175 24.9795 38.1831C25.0144 38.1919 25.049 38.2017 25.0846 38.2088C25.1219 38.2161 25.1596 38.2205 25.1971 38.226C25.2281 38.2304 25.2586 38.2364 25.2901 38.2394C25.4295 38.2532 25.5701 38.2532 25.7095 38.2394C25.7409 38.2364 25.7714 38.2305 25.8024 38.226C25.84 38.2206 25.8777 38.2162 25.915 38.2088C25.9507 38.2017 25.9851 38.1919 26.0201 38.1831C26.0524 38.175 26.0847 38.1679 26.1166 38.1583C26.1509 38.1479 26.184 38.135 26.2175 38.123C26.2494 38.1115 26.2815 38.1011 26.3128 38.0881C26.3441 38.0752 26.3741 38.0599 26.4046 38.0455C26.437 38.0303 26.4696 38.0159 26.5013 37.9989C26.5305 37.9832 26.5583 37.9654 26.5867 37.9485C26.6177 37.93 26.6492 37.9123 26.6795 37.8921C26.7109 37.8711 26.7404 37.8478 26.7704 37.8253C26.7959 37.8062 26.8218 37.7886 26.8466 37.7684C26.8998 37.7247 26.9511 37.6784 26.9999 37.6297C27.0007 37.629 27.0015 37.6283 27.0022 37.6276L37.6273 27.0026C38.4571 26.1728 38.4571 24.8272 37.6273 23.9974C36.7974 23.1675 35.4519 23.1675 34.6221 23.9974L27.6247 30.9947V2.12497C27.6249 0.951369 26.6735 0 25.4999 0C24.3263 0 23.375 0.951369 23.375 2.12497V30.9947L16.3776 23.9974C15.5478 23.1675 14.2022 23.1675 13.3724 23.9974C12.5425 24.8272 12.5425 26.1728 13.3724 27.0026L23.9973 37.6276Z" fill="white"/>
<path d="M48.8751 36.1255C47.7015 36.1255 46.7502 37.0769 46.7502 38.2505V46.7504H4.25004V38.2505C4.25004 37.0769 3.29867 36.1255 2.12507 36.1255C0.951371 36.1255 0 37.0769 0 38.2505V48.8755C0 50.0491 0.951371 51.0005 2.12497 51.0005H48.875C50.0486 51.0005 51 50.0491 51 48.8755V38.2505C51.0001 37.0769 50.0487 36.1255 48.8751 36.1255Z" fill="white"/>
</svg>
