<svg width="16" height="16" viewBox="0 0 16 16" fill="none" xmlns="http://www.w3.org/2000/svg">
<circle cx="8" cy="8" r="8" fill="#008BD0"/>
<path d="M7.944 10.336V9.604C7.944 9.388 7.96 9.208 7.992 9.064C8.024 8.92 8.072 8.792 8.136 8.68C8.2 8.56 8.284 8.448 8.388 8.344C8.5 8.232 8.636 8.1 8.796 7.948C8.924 7.828 9.052 7.708 9.18 7.588C9.308 7.46 9.424 7.332 9.528 7.204C9.632 7.068 9.716 6.928 9.78 6.784C9.852 6.632 9.888 6.464 9.888 6.28C9.888 6.096 9.852 5.928 9.78 5.776C9.716 5.616 9.628 5.48 9.516 5.368C9.404 5.256 9.268 5.168 9.108 5.104C8.956 5.04 8.792 5.008 8.616 5.008C8.224 5.008 7.904 5.132 7.656 5.38C7.416 5.628 7.272 5.952 7.224 6.352L6 6.232C6.104 5.536 6.392 4.992 6.864 4.6C7.344 4.2 7.936 4 8.64 4C8.976 4 9.288 4.052 9.576 4.156C9.872 4.252 10.128 4.396 10.344 4.588C10.56 4.772 10.728 5.004 10.848 5.284C10.976 5.556 11.04 5.868 11.04 6.22C11.04 6.524 10.996 6.792 10.908 7.024C10.82 7.248 10.696 7.46 10.536 7.66L9.816 8.404L9.696 8.512C9.568 8.632 9.464 8.736 9.384 8.824C9.312 8.904 9.252 8.992 9.204 9.088C9.164 9.176 9.136 9.276 9.12 9.388C9.104 9.5 9.096 9.64 9.096 9.808V10.336H7.944ZM7.716 11.992C7.716 11.776 7.792 11.592 7.944 11.44C8.104 11.28 8.292 11.2 8.508 11.2C8.724 11.2 8.908 11.28 9.06 11.44C9.22 11.592 9.3 11.776 9.3 11.992C9.3 12.208 9.22 12.396 9.06 12.556C8.908 12.708 8.724 12.784 8.508 12.784C8.292 12.784 8.104 12.708 7.944 12.556C7.792 12.396 7.716 12.208 7.716 11.992Z" fill="white"/>
</svg>
