<svg width="320" height="162" viewBox="0 0 320 162" fill="none" xmlns="http://www.w3.org/2000/svg">
<path d="M11.0672 105.224V100.844H0V120.674H11.0672V116.294H4.99808V112.888H10.7103V108.509H4.99808V105.224H11.0672V105.224ZM13.9233 107.171V120.552H18.5645V113.375C18.5645 111.672 19.5165 110.577 21.0635 110.577C21.8965 110.577 22.6105 110.941 22.9675 111.671C23.2056 112.158 23.3246 112.401 23.3246 113.861V120.674H27.9658V112.158C27.9658 110.334 27.6088 109.36 26.7757 108.509C25.8237 107.536 24.6336 107.049 22.9675 107.049C20.9445 107.049 19.8735 107.535 18.6835 108.995V107.292H13.9233V107.171ZM43.7931 100.844H38.795V112.279C38.795 115.199 39.152 116.781 40.223 118.241C41.5321 120.066 44.1502 121.16 47.1253 121.16C50.1004 121.16 52.2424 120.187 53.9084 118.362C55.3364 116.781 55.8124 115.199 55.8124 112.279V100.844H50.8143V111.55C50.8143 113.618 50.6953 114.226 50.3383 114.956C49.8623 115.929 48.6723 116.537 47.3632 116.537C46.1732 116.537 45.1022 115.929 44.6262 115.078C44.1502 114.226 44.0312 113.74 44.0312 111.55V100.844H43.7931ZM59.7396 107.171V120.552H64.3807V114.834C64.3807 112.28 65.4517 111.063 67.5938 111.063C68.4268 111.063 68.7839 111.185 69.6169 111.55V107.049C69.1409 107.049 69.0218 107.049 68.6648 107.049C66.6418 107.049 65.4518 107.779 64.2618 109.482V107.292H59.7396V107.171ZM76.4001 107.171H71.7589V115.686C71.7589 119.214 74.258 121.16 78.7801 121.16C83.4212 121.16 85.8013 119.214 85.8013 115.686V107.171H81.1602V114.834C81.1602 116.416 80.3272 117.267 78.7801 117.267C77.1141 117.267 76.4001 116.416 76.4001 114.834V107.171ZM103.771 107.171H99.1296V108.509C98.0586 107.171 96.8687 106.684 95.2026 106.684C91.3945 106.684 88.5383 109.847 88.5383 113.983C88.5383 117.998 91.1564 120.795 94.9645 120.795C96.7496 120.795 97.7016 120.309 99.1296 119.092V120.309C99.1296 122.377 97.9396 123.593 96.0356 123.593C94.8456 123.593 94.1315 123.107 93.7745 122.255H88.5383C89.0143 125.418 92.1085 127.365 96.0356 127.365C98.5347 127.365 100.558 126.634 101.867 125.175C103.176 123.836 103.652 122.498 103.652 119.579V107.171H103.771ZM96.3927 110.82C98.0587 110.82 99.3677 112.158 99.3677 113.861C99.3677 115.564 98.0587 116.903 96.3927 116.903C94.7266 116.903 93.4176 115.564 93.4176 113.861C93.2986 112.158 94.7266 110.82 96.3927 110.82ZM111.744 107.171H107.103V115.686C107.103 119.214 109.602 121.16 114.124 121.16C118.646 121.16 121.145 119.214 121.145 115.686V107.171H116.504V114.834C116.504 116.416 115.671 117.267 114.124 117.267C112.458 117.267 111.744 116.416 111.744 114.834V107.171ZM134.593 107.171V108.509C133.403 107.292 132.213 106.805 130.428 106.805C126.619 106.805 123.763 109.847 123.763 113.983C123.763 117.998 126.738 121.16 130.428 121.16C132.213 121.16 133.522 120.552 134.474 119.214V120.674H139.115V107.292H134.593V107.171ZM131.737 110.82C133.403 110.82 134.712 112.158 134.712 113.861C134.712 115.564 133.403 116.903 131.737 116.903C130.071 116.903 128.643 115.564 128.643 113.861C128.643 112.158 130.071 110.82 131.737 110.82ZM147.445 118.849L142.923 127.365H148.159L158.75 107.171H153.395L149.944 114.104L146.374 107.171H140.9L147.445 118.849ZM167.795 107.171V120.552H172.436V113.375C172.436 111.672 173.388 110.577 174.935 110.577C175.768 110.577 176.482 110.941 176.839 111.671C177.077 112.158 177.077 112.401 177.077 113.861V120.674H181.718V112.158C181.718 110.334 181.48 109.36 180.528 108.509C179.576 107.536 178.386 107.049 176.72 107.049C174.816 107.049 173.745 107.535 172.436 108.995V107.292H167.795V107.171ZM195.165 107.171V108.509C193.975 107.292 192.785 106.805 191 106.805C187.192 106.805 184.336 109.847 184.336 113.983C184.336 117.998 187.192 121.16 191 121.16C192.785 121.16 194.094 120.552 195.046 119.214V120.674H199.687V107.292H195.165V107.171ZM192.309 110.82C193.975 110.82 195.284 112.158 195.284 113.861C195.284 115.564 193.975 116.903 192.309 116.903C190.643 116.903 189.215 115.564 189.215 113.861C189.215 112.158 190.643 110.82 192.309 110.82ZM213.254 98.8979V108.509C212.064 107.292 210.874 106.805 209.089 106.805C205.281 106.805 202.425 109.847 202.425 113.983C202.425 117.998 205.281 121.16 209.089 121.16C210.874 121.16 212.183 120.552 213.135 119.214V120.674H217.776V98.8979H213.254V98.8979ZM210.398 110.82C212.064 110.82 213.373 112.158 213.373 113.861C213.373 115.564 212.064 116.903 210.398 116.903C208.732 116.903 207.304 115.564 207.304 113.861C207.423 112.158 208.732 110.82 210.398 110.82ZM225.868 107.171H221.227V120.552H225.868V107.171ZM223.488 99.385C222.06 99.385 220.87 100.601 220.87 102.061C220.87 103.521 222.06 104.738 223.488 104.738C224.916 104.738 226.106 103.521 226.106 102.061C226.106 100.601 224.916 99.385 223.488 99.385ZM243.005 114.834V114.226C243.005 109.603 240.268 106.927 235.627 106.927C231.223 106.927 228.367 109.725 228.367 114.104C228.367 118.484 231.342 121.16 236.102 121.16C239.553 121.16 241.934 119.579 242.767 116.537H238.245C237.649 117.51 237.054 117.754 235.983 117.754C234.079 117.754 233.127 116.781 233.127 114.713H243.005V114.834ZM233.246 112.037C233.484 110.698 234.436 109.846 235.983 109.846C237.292 109.846 238.364 110.698 238.602 112.037H233.246ZM258.237 111.185H260.855V107.292H258.237V103.277H253.596V107.292H252.049V111.185H253.596V120.674H258.237V111.185ZM276.921 114.834V114.226C276.921 109.603 274.184 106.927 269.542 106.927C265.139 106.927 262.283 109.725 262.283 114.104C262.283 118.484 265.258 121.16 270.018 121.16C273.469 121.16 275.85 119.579 276.683 116.537H272.16C271.565 117.51 270.97 117.754 269.899 117.754C267.995 117.754 267.043 116.781 267.043 114.713H276.921V114.834ZM267.281 112.037C267.519 110.698 268.471 109.846 270.018 109.846C271.327 109.846 272.398 110.698 272.636 112.037H267.281ZM297.151 98.8979V108.509C295.961 107.292 294.771 106.805 292.986 106.805C289.178 106.805 286.322 109.847 286.322 113.983C286.322 117.998 289.297 121.16 292.986 121.16C294.771 121.16 296.08 120.552 297.032 119.214V120.674H301.673V98.8979H297.151V98.8979ZM294.295 110.82C295.961 110.82 297.27 112.158 297.27 113.861C297.27 115.564 295.961 116.903 294.295 116.903C292.629 116.903 291.201 115.564 291.201 113.861C291.32 112.158 292.629 110.82 294.295 110.82ZM315.359 107.171V108.509C314.169 107.292 312.979 106.805 311.194 106.805C307.385 106.805 304.529 109.847 304.529 113.983C304.529 117.998 307.504 121.16 311.194 121.16C312.979 121.16 314.288 120.552 315.24 119.214V120.674H319.881V107.292H315.359V107.171ZM312.503 110.82C314.169 110.82 315.478 112.158 315.478 113.861C315.478 115.564 314.169 116.903 312.503 116.903C310.837 116.903 309.528 115.564 309.528 113.861C309.409 112.158 310.718 110.82 312.503 110.82Z" fill="white"/>
<path d="M110.554 140.865V154.247H115.195V147.556C115.195 146.339 115.314 145.731 115.552 145.245C115.79 144.636 116.623 144.15 117.337 144.15C118.17 144.15 118.884 144.637 119.242 145.366C119.361 145.853 119.479 146.096 119.479 147.556V154.247H124.121V147.556C124.121 145.366 124.835 144.272 126.382 144.272C127.096 144.272 127.81 144.758 128.048 145.488C128.286 145.975 128.286 146.218 128.286 147.678V154.368H132.927V145.61C132.927 142.447 131.38 140.622 128.405 140.622C126.501 140.622 124.954 141.474 123.883 143.177C122.812 141.474 121.503 140.744 119.36 140.744C117.575 140.744 116.504 141.231 115.076 142.569V140.865H110.554V140.865ZM146.493 140.865V142.203C145.303 140.987 144.113 140.5 142.328 140.5C138.52 140.5 135.664 143.542 135.664 147.678C135.664 151.692 138.639 154.855 142.328 154.855C144.113 154.855 145.422 154.247 146.374 152.909V154.368H151.015V140.987H146.493V140.865ZM143.637 144.515C145.303 144.515 146.612 145.853 146.612 147.556C146.612 149.259 145.303 150.597 143.637 150.597C141.971 150.597 140.543 149.259 140.543 147.556C140.543 145.853 141.852 144.515 143.637 144.515ZM148.159 134.904L145.184 132.715L141.495 137.337L143.637 138.919L148.159 134.904ZM164.701 141.23C163.273 140.622 162.083 140.379 160.417 140.379C156.847 140.379 154.466 142.203 154.466 145.123C154.466 147.313 155.419 148.286 158.394 148.894C160.06 149.259 160.417 149.502 160.417 150.111C160.417 150.719 159.822 151.084 158.989 151.084C157.918 151.084 156.49 150.597 155.3 149.746L153.633 153.152C155.419 154.125 157.085 154.734 158.87 154.734C162.678 154.734 165.177 152.787 165.177 149.746C165.177 147.556 163.987 146.218 161.369 145.731C159.465 145.366 159.227 145.245 159.227 144.515C159.227 144.028 159.822 143.542 160.655 143.542C161.488 143.542 162.321 143.785 163.154 144.15L164.701 141.23ZM185.169 141.23C183.741 140.622 182.551 140.379 180.885 140.379C177.315 140.379 175.054 142.203 175.054 145.123C175.054 147.313 176.006 148.286 178.981 148.894C180.647 149.259 181.004 149.502 181.004 150.111C181.004 150.719 180.409 151.084 179.576 151.084C178.505 151.084 177.077 150.597 175.768 149.746L174.102 153.152C175.887 154.125 177.553 154.734 179.338 154.734C183.146 154.734 185.645 152.787 185.645 149.746C185.645 147.556 184.455 146.218 181.837 145.731C179.933 145.366 179.695 145.245 179.695 144.515C179.695 144.028 180.29 143.542 181.123 143.542C181.956 143.542 182.789 143.785 183.622 144.15L185.169 141.23ZM201.949 148.529V147.921C201.949 143.298 199.212 140.622 194.571 140.622C190.168 140.622 187.311 143.42 187.311 147.799C187.311 152.179 190.286 154.977 195.047 154.977C198.498 154.977 200.878 153.395 201.711 150.354H197.189C196.594 151.327 195.999 151.571 194.928 151.571C193.024 151.571 192.071 150.597 192.071 148.529H201.949V148.529ZM192.191 145.731C192.429 144.393 193.381 143.542 194.928 143.542C196.237 143.542 197.308 144.393 197.546 145.731H192.191ZM219.442 140.865H214.801V142.325C213.73 141.109 212.54 140.5 210.874 140.5C207.066 140.5 204.21 143.663 204.21 147.799C204.21 151.814 206.947 154.612 210.636 154.612C212.421 154.612 213.492 154.125 214.801 152.909V154.125C214.801 156.193 213.611 157.41 211.707 157.41C210.517 157.41 209.803 156.923 209.446 156.071H204.21C204.686 159.234 207.78 161.181 211.707 161.181C214.206 161.181 216.229 160.451 217.538 158.991C218.966 157.653 219.323 156.315 219.323 153.395V140.865H219.442ZM211.945 144.515C213.611 144.515 214.92 145.853 214.92 147.556C214.92 149.259 213.611 150.597 211.945 150.597C210.279 150.597 208.97 149.259 208.97 147.556C208.97 145.853 210.279 144.515 211.945 144.515ZM227.297 140.865H222.655V149.381C222.655 152.908 225.036 154.855 229.677 154.855C234.199 154.855 236.698 152.908 236.698 149.381V140.865H232.057V148.529C232.057 150.111 231.224 150.962 229.677 150.962C228.13 150.962 227.297 150.111 227.297 148.529V140.865ZM239.911 140.865V154.247H244.552V148.529C244.552 145.975 245.623 144.758 247.765 144.758C248.598 144.758 248.955 144.88 249.788 145.245V140.744C249.312 140.744 249.193 140.744 248.836 140.744C246.813 140.744 245.623 141.474 244.552 143.177V140.987H239.911V140.865ZM256.69 140.865H252.049V154.247H256.69V140.865ZM254.31 133.08C252.882 133.08 251.692 134.296 251.692 135.756C251.692 137.216 252.882 138.432 254.31 138.432C255.738 138.432 256.928 137.216 256.928 135.756C256.928 134.296 255.738 133.08 254.31 133.08ZM270.019 132.593V142.203C268.829 140.987 267.639 140.5 265.854 140.5C262.045 140.5 259.189 143.542 259.189 147.678C259.189 151.692 262.045 154.855 265.854 154.855C267.639 154.855 268.948 154.247 269.9 152.909V154.368H274.541V132.593H270.019V132.593ZM267.163 144.515C268.829 144.515 270.138 145.853 270.138 147.556C270.138 149.259 268.829 150.597 267.163 150.597C265.497 150.597 264.068 149.259 264.068 147.556C264.188 145.853 265.497 144.515 267.163 144.515ZM288.226 140.865V142.203C287.036 140.987 285.846 140.5 284.061 140.5C280.253 140.5 277.397 143.542 277.397 147.678C277.397 151.692 280.372 154.855 284.061 154.855C285.846 154.855 287.155 154.247 288.107 152.909V154.368H292.748V140.987H288.226V140.865ZM285.37 144.515C287.036 144.515 288.345 145.853 288.345 147.556C288.345 149.259 287.036 150.597 285.37 150.597C283.704 150.597 282.276 149.259 282.276 147.556C282.276 145.853 283.585 144.515 285.37 144.515ZM306.315 132.593V142.203C305.125 140.987 303.935 140.5 302.15 140.5C298.341 140.5 295.485 143.542 295.485 147.678C295.485 151.692 298.341 154.855 302.15 154.855C303.935 154.855 305.244 154.247 306.196 152.909V154.368H310.837V132.593H306.315V132.593ZM303.459 144.515C305.125 144.515 306.434 145.853 306.434 147.556C306.434 149.259 305.125 150.597 303.459 150.597C301.793 150.597 300.484 149.259 300.484 147.556C300.365 145.853 301.674 144.515 303.459 144.515ZM317.025 148.772C315.359 148.772 313.931 150.11 313.931 151.814C313.931 153.517 315.24 154.855 317.025 154.855C318.691 154.855 320 153.517 320 151.814C320 150.11 318.691 148.772 317.025 148.772Z" fill="white"/>
<g clip-path="url(#clip0)">
<path d="M151.616 39.569H149.013V46.347H151.616C153.103 46.347 154.405 45.9806 155.149 45.431C156.078 44.8814 156.45 43.9655 156.45 42.8664C156.45 41.7672 156.078 40.8513 155.149 40.3017C154.405 39.7521 153.103 39.569 151.616 39.569ZM151.058 24.3642H149.013V30.4095H151.058C152.36 30.4095 153.289 30.2263 153.847 29.6767C154.591 29.1271 154.777 28.3944 154.777 27.4784C154.777 26.5625 154.405 25.8297 153.847 25.2802C153.289 24.5474 152.174 24.3642 151.058 24.3642ZM134.326 56.7888V14.2888H154.963C159.425 14.2888 162.771 15.3879 165.374 17.403C167.791 19.4181 169.092 22.3491 169.092 26.0129C169.092 28.3944 168.535 30.2263 167.419 31.875C166.304 33.3405 164.63 34.4396 162.399 34.806C165.374 35.3556 167.605 36.4547 168.907 38.2866C170.394 39.9353 171.138 42.1336 171.138 45.0646C171.138 49.0948 169.836 52.0258 167.047 54.0409C164.259 55.8728 160.354 56.7888 154.963 56.7888H134.326ZM266.886 56.7888V14.2888H295.89V25.8297H282.132V29.8599H294.588V40.8513H282.132V45.2478H296.261V56.7888H266.886ZM215.201 45.6142C216.316 45.6142 217.06 45.431 217.803 45.0646C218.361 44.6983 218.733 44.1487 218.733 43.4159C218.733 42.1336 217.246 41.4008 214.085 40.6681C213.155 40.4849 212.412 40.3017 211.854 40.1185C208.693 39.3858 206.09 37.9202 204.417 35.9052C202.744 33.8901 201.814 31.5086 201.814 28.5776C201.814 23.9978 203.488 20.334 206.834 17.403C210.181 14.472 214.457 13.0065 219.849 13.0065C222.265 13.0065 224.868 13.3728 227.099 13.9224C229.516 14.472 231.933 15.5711 234.35 16.8534L229.702 28.028C228.215 26.9289 226.728 26.1961 225.24 25.4634C223.753 24.9138 222.265 24.5474 220.778 24.5474C219.663 24.5474 218.919 24.7306 218.175 25.097C217.617 25.4634 217.246 26.0129 217.246 26.5625C217.246 27.8448 219.477 28.7608 223.753 29.6767C224.497 29.8599 225.054 30.0431 225.426 30.0431C228.401 30.7758 230.818 32.0582 232.491 34.0733C234.164 36.0883 235.094 38.653 235.094 41.4008C235.094 46.1638 233.421 50.0108 229.888 52.9418C226.356 55.8728 221.894 57.3383 216.316 57.3383C213.527 57.3383 210.553 56.972 207.764 56.056C204.975 55.3233 202 54.0409 199.211 52.5754L204.231 40.6681C206.462 42.1336 208.507 43.2327 210.181 43.9655C212.04 45.431 213.713 45.6142 215.201 45.6142ZM282.689 0C268.374 0 256.103 7.87715 249.782 19.6013C243.646 7.87715 231.19 0 217.06 0C202.744 0 190.287 7.87715 184.152 19.6013C177.831 7.87715 165.56 0 151.244 0C130.793 0 114.06 16.4871 114.06 36.6379C114.06 56.7888 130.793 73.2758 151.244 73.2758C165.56 73.2758 177.831 65.3987 184.152 53.6745C190.287 65.3987 202.744 73.2758 217.06 73.2758C231.19 73.2758 243.646 65.3987 249.782 53.6745C256.103 65.3987 268.374 73.2758 282.689 73.2758C303.14 73.2758 319.873 56.7888 319.873 36.6379C319.873 16.4871 303.14 0 282.689 0Z" fill="white"/>
</g>
<defs>
<clipPath id="clip0">
<rect width="205.813" height="73.2758" fill="white" transform="translate(114.06)"/>
</clipPath>
</defs>
</svg>
