<svg width="150" height="130" viewBox="0 0 150 130" fill="none" xmlns="http://www.w3.org/2000/svg">
<g clip-path="url(#clip0)">
<path d="M139.583 126.72L139.717 126.653C142.595 125.313 145.306 124.073 147.615 124.073C147.648 124.073 147.648 124.073 147.682 124.073C148.284 124.039 148.753 123.57 148.753 123.034C148.753 122.766 148.652 122.498 148.451 122.296C148.251 122.095 148.016 121.995 147.749 121.995C144.871 121.995 141.223 123.671 138.312 125.011C136.237 125.983 134.43 126.821 132.957 127.055C130.715 127.424 128.406 127.223 125.729 126.419L122.616 125.48L149.455 92.7373C149.857 92.3016 149.489 91.7654 149.422 91.6648C149.255 91.3967 148.82 90.9946 148.184 91.2292C132.187 97.5298 109.799 102.322 81.6551 105.439L79.2456 105.707V88.2465L138.077 82.5156C138.345 82.4821 138.613 82.348 138.78 82.1469C138.947 81.9459 139.048 81.6777 139.014 81.3761C139.014 81.2421 137.575 67.1663 129.41 50.1413C121.947 34.5909 107.156 13.2761 79.0113 0.105181C78.7102 -0.0288742 78.342 -0.0288742 78.1078 0.0716672C77.8401 0.205722 77.6393 0.507346 77.5054 0.97654C77.5054 1.04357 77.4719 1.14411 77.4385 1.27816C74.6274 14.181 59.0996 78.9631 28.044 91.1957C27.3747 91.4638 27.3747 91.7654 27.4416 92.134C27.5755 92.7373 28.0775 93.2065 28.2448 93.2065C28.7133 93.173 74.3262 88.7492 74.7613 88.6821L77.1373 88.4475V105.942L75.1629 106.143C44.8769 109.159 19.1088 109.26 18.8411 109.26C18.3726 109.26 18.1383 109.561 18.0045 109.762C17.8037 110.097 17.7702 110.5 17.9375 110.835L24.7644 122.9L22.9908 124.006C20.5813 125.48 18.6738 126.452 14.7583 126.452H14.7249C10.0732 126.452 7.19522 125.48 4.88613 124.676C3.34674 124.14 2.24239 123.771 0.970715 123.771C0.736459 123.771 0.502203 123.872 0.334877 124.039C0.134087 124.24 0.0336914 124.542 0.0336914 124.81C0.0336914 125.112 0.167552 125.413 0.401808 125.614C0.569133 125.782 0.769924 125.849 0.970715 125.815H1.10457H1.23844C1.74041 125.849 2.17546 126.016 3.01209 126.285C4.9196 126.988 8.90195 128.463 14.6579 128.463C19.5773 128.463 22.0203 126.955 24.6305 125.38L24.664 125.346C25.5341 124.81 26.5381 124.207 27.7093 123.57C33.9673 120.286 39.9241 123.201 47.0522 127.324C52.6408 130.574 57.2925 128.262 61.8103 126.05L61.8437 126.016C63.8182 125.045 65.6922 124.106 67.7001 123.637C68.4029 123.469 69.1391 123.369 69.8754 123.369C72.9876 123.369 75.8322 124.877 78.844 126.486C81.722 127.994 84.9347 129.737 88.4485 129.904C88.7831 129.938 89.1513 129.938 89.4859 129.938C94.6395 129.938 98.6888 127.893 102.571 125.882C103.508 125.413 104.512 124.911 105.549 124.408C109.9 122.33 114.049 124.039 118.433 125.815C119.136 126.117 119.939 126.419 120.742 126.72L121.177 126.888C125.193 128.429 129.176 129.737 133.526 128.999C135.132 128.798 137.408 127.759 139.583 126.72ZM35.1721 90.4919L40.3591 86.001C63.5839 65.9598 75.5644 19.208 78.6767 5.33333L79.3125 2.55169L81.8224 3.89224C123.955 26.2795 134.296 66.4625 136.437 78.2593L136.873 80.6053L35.1721 90.4919ZM120.608 124.609L119.136 124.006C114.518 122.129 109.766 120.185 104.579 122.632C103.575 123.101 102.571 123.637 101.6 124.106L101.5 124.173C97.5175 126.218 94.0706 127.96 89.419 127.96C89.1178 127.96 88.7831 127.96 88.4485 127.927C85.4032 127.759 82.659 126.318 79.7141 124.743C75.8322 122.699 71.8163 120.554 67.1312 121.693C64.9225 122.229 62.8477 123.268 60.8398 124.24C56.6232 126.318 52.6743 128.262 48.0227 125.581C42.434 122.33 35.4398 118.275 28.2448 121.056L26.4711 121.727L20.6482 111.304L24.2624 111.237C40.9615 110.935 98.5884 109.059 138.144 96.893L145.038 94.7816L120.608 124.609Z" fill="black"/>
<path d="M35.1721 90.491C66.0002 63.999 76.0002 17.499 79.3126 2.55078C123.654 23.8656 134.731 68.9081 136.873 80.5709L35.1721 90.491Z" fill="#00A5E1"/>
<path d="M120.642 125.379C115.756 123.301 110.569 120.754 104.11 123.067C102.973 123.469 102.002 124.139 100.965 124.676C96.7481 126.921 93.4016 128.697 88.7499 128.463C86.1397 128.329 83.5294 126.887 80.7852 125.379C76.669 123.134 72.0174 120.553 66.4287 121.994C63.9523 122.631 61.7101 123.771 59.5684 124.877C54.9502 127.256 52.1391 128.496 48.6253 126.351C42.7689 122.832 35.1388 118.241 26.8395 121.592L20.6484 111.304C38.7865 110.968 104.746 107.651 145.038 94.7812L120.642 125.379Z" fill="#E6E9EE"/>
</g>
<defs>
<clipPath id="clip0">
<rect width="149.589" height="130" fill="white"/>
</clipPath>
</defs>
</svg>
