<svg width="51" height="52" viewBox="0 0 51 52" fill="none" xmlns="http://www.w3.org/2000/svg">
<path d="M7.38672 9.69208H44.8206C47.4078 9.69208 49.429 12.0927 49.0248 14.7417L45.9525 29.6424C45.7908 30.7186 44.9014 31.4636 43.8503 31.4636H12.642" stroke="white" stroke-width="2" stroke-miterlimit="10" stroke-linecap="round" stroke-linejoin="round"/>
<path d="M17.9781 51C20.3447 51 22.2632 49.0357 22.2632 46.6126C22.2632 44.1895 20.3447 42.2252 17.9781 42.2252C15.6115 42.2252 13.693 44.1895 13.693 46.6126C13.693 49.0357 15.6115 51 17.9781 51Z" stroke="white" stroke-width="2" stroke-miterlimit="10" stroke-linecap="round" stroke-linejoin="round"/>
<path d="M41.3448 51C43.7114 51 45.6299 49.0357 45.6299 46.6126C45.6299 44.1895 43.7114 42.2252 41.3448 42.2252C38.9783 42.2252 37.0598 44.1895 37.0598 46.6126C37.0598 49.0357 38.9783 51 41.3448 51Z" stroke="white" stroke-width="2" stroke-miterlimit="10" stroke-linecap="round" stroke-linejoin="round"/>
<path d="M1 1C5.28508 1 5.28508 3.15232 7.3872 9.69205L13.7744 35.7682C14.0169 36.7616 14.5021 37.9205 15.4723 37.9205H45.6295" stroke="white" stroke-width="2" stroke-miterlimit="10" stroke-linecap="round" stroke-linejoin="round"/>
</svg>
