<svg width="79" height="82" viewBox="0 0 79 82" fill="none" xmlns="http://www.w3.org/2000/svg">
<path d="M11.9641 15.5605H70.3609C74.397 15.5605 77.5501 19.3056 76.9195 23.438L72.1267 46.6831C71.8744 48.3619 70.487 49.5241 68.8474 49.5241H20.1624" stroke="#00A5E1" stroke-width="3" stroke-miterlimit="10" stroke-linecap="round" stroke-linejoin="round"/>
<path d="M28.4867 79.9993C32.1786 79.9993 35.1715 76.935 35.1715 73.1549C35.1715 69.3749 32.1786 66.3105 28.4867 66.3105C24.7949 66.3105 21.802 69.3749 21.802 73.1549C21.802 76.935 24.7949 79.9993 28.4867 79.9993Z" stroke="#00A5E1" stroke-width="3" stroke-miterlimit="10" stroke-linecap="round" stroke-linejoin="round"/>
<path d="M64.9374 79.9993C68.6293 79.9993 71.6221 76.935 71.6221 73.1549C71.6221 69.3749 68.6293 66.3105 64.9374 66.3105C61.2455 66.3105 58.2527 69.3749 58.2527 73.1549C58.2527 76.935 61.2455 79.9993 64.9374 79.9993Z" stroke="#00A5E1" stroke-width="3" stroke-miterlimit="10" stroke-linecap="round" stroke-linejoin="round"/>
<path d="M2 2C8.68473 2 8.68473 5.35762 11.964 15.5596L21.9281 56.2384C22.3064 57.7881 23.0632 59.596 24.5767 59.596H71.6221" stroke="#00A5E1" stroke-width="3" stroke-miterlimit="10" stroke-linecap="round" stroke-linejoin="round"/>
</svg>
