<svg width="152" height="100" viewBox="0 0 152 100" fill="none" xmlns="http://www.w3.org/2000/svg">
<g clip-path="url(#clip0)">
<path d="M32.095 57.7031C40.5614 57.7031 47.4663 64.6428 47.4663 73.0744C47.4663 81.506 40.5267 88.4457 32.095 88.4457C23.6634 88.4457 16.7238 81.506 16.7238 73.0744C16.7238 64.6081 23.6287 57.7031 32.095 57.7031ZM119.291 57.7031C127.758 57.7031 134.663 64.6428 134.663 73.0744C134.663 81.506 127.723 88.4457 119.291 88.4457C110.825 88.4457 103.92 81.506 103.92 73.0744C103.885 64.6081 110.825 57.7031 119.291 57.7031Z" fill="#E6E9EE"/>
<path d="M119.291 67.9395C122.102 67.9395 124.427 70.2642 124.427 73.0748C124.427 75.8853 122.102 78.2101 119.291 78.2101C116.481 78.2101 114.156 75.8853 114.156 73.0748C114.156 70.2642 116.446 67.9395 119.291 67.9395ZM32.0949 67.9395C34.9055 67.9395 37.2302 70.2642 37.2302 73.0748C37.2302 75.8853 34.9055 78.2101 32.0949 78.2101C29.2844 78.2101 26.9596 75.8853 26.9596 73.0748C26.9596 70.2642 29.2844 67.9395 32.0949 67.9395Z" fill="#E4F2DE"/>
<path d="M147.467 52.5685L149.791 67.454C150.555 70.785 148.507 73.1098 144.934 73.1098H134.663C134.663 64.6435 127.723 57.7386 119.292 57.7386C110.825 57.7386 103.92 64.6782 103.92 73.1098H47.4665C47.4665 64.6435 40.5269 57.7386 32.0952 57.7386C23.6636 57.7386 16.724 64.6782 16.724 73.1098H6.45332C3.64277 73.1098 1.31799 70.785 1.31799 67.9745V52.6032V42.3326C1.31799 39.522 3.64277 37.1973 6.45332 37.1973H17.4873H57.7371H91.082H119.292H126.995C139.798 37.1973 145.94 44.8656 147.467 52.5685Z" fill="#00A5E1"/>
<path d="M150 97.4316H108.987C108.223 97.4316 107.703 97.9521 107.703 98.7155C107.703 99.4788 108.223 99.9993 108.987 99.9993H150C150.763 99.9993 151.284 99.4788 151.284 98.7155C151.284 97.9521 150.763 97.4316 150 97.4316Z" fill="black"/>
<path d="M126.058 38.4446C126.44 38.4099 117.315 37.9241 117.315 37.1608C117.315 36.3974 114.99 35.877 114.226 35.877H112.977C114.4 37.1955 116.482 38.4446 119.258 38.4446H126.058Z" fill="#51565F"/>
<path d="M73.0743 46.1484H70.5066C69.7432 46.1484 69.2228 46.6689 69.2228 47.4323C69.2228 48.1956 69.7432 48.7161 70.5066 48.7161H73.0743C73.8376 48.7161 74.3581 48.1956 74.3581 47.4323C74.3581 46.6689 73.8376 46.1484 73.0743 46.1484Z" fill="#51565F"/>
<path d="M78.2091 97.4316H52.5672C51.8038 97.4316 51.2833 97.9521 51.2833 98.7155C51.2833 99.4788 51.8038 99.9993 52.5672 99.9993H78.2091C78.9724 99.9993 79.4929 99.4788 79.4929 98.7155C79.4929 97.9521 78.9724 97.4316 78.2091 97.4316Z" fill="black"/>
<path d="M103.609 73.0749C103.609 72.3115 104.65 71.791 103.886 71.791H102.602C102.568 72.2074 102.533 72.6585 102.533 73.0749C102.533 73.3871 102.533 73.6647 102.568 73.9423C103.609 73.7341 103.609 73.4218 103.609 73.0749Z" fill="#51565F"/>
<path d="M119.223 89.7293C127.933 89.7293 135.115 83.0673 135.636 74.3581H144.622C146.947 74.3581 148.994 73.5947 150.001 72.0333C151.042 70.7495 151.284 68.9452 150.764 67.1756L148.439 52.2901C146.912 44.3442 140.25 35.8779 126.649 35.8779H118.946C114.574 35.8779 112.527 31.5059 112.284 31.263L96.9124 10.7564C92.5405 4.09438 85.358 0 77.9326 0H42.0547C35.3927 0 30.7778 2.81055 27.9326 8.46634L16.2046 35.9126H18.3559C19.1539 34.594 20.4378 32.0958 22.7972 27.4462L30.5002 9.50729C33.0679 4.89244 36.9194 2.56766 42.2976 2.56766H78.2101C84.8722 2.56766 91.0138 6.14157 95.1428 12.3178L110.514 32.5815C110.514 32.7203 111.312 34.3858 112.978 35.9126H114.227C114.99 35.9126 117.315 36.433 117.315 37.1964C117.315 37.9597 126.441 38.4455 126.059 38.4802H126.926C138.203 38.4802 144.102 44.8994 145.906 51.2838H139.765C139.001 51.2838 138.481 51.8043 138.481 52.5677C138.481 53.331 139.001 53.8515 139.765 53.8515H146.427L148.751 67.696C148.994 68.9799 148.751 69.7432 148.231 70.5066C147.468 71.2699 146.427 71.7904 144.9 71.7904H135.913C135.15 63.0812 127.967 56.4192 119.258 56.4192C110.445 56.4192 103.297 63.1853 102.638 71.7904H103.921C104.685 71.7904 103.644 72.3109 103.644 73.0742C103.644 73.4212 103.644 73.7335 102.603 73.9417C103.054 82.7897 110.306 89.7293 119.223 89.7293ZM119.223 58.9868C126.926 58.9868 133.311 65.406 133.311 73.0742C133.311 80.7772 126.892 87.1617 119.223 87.1617C111.52 87.1617 105.136 80.7425 105.136 73.0742C105.136 65.3713 111.555 58.9868 119.223 58.9868Z" fill="black"/>
<path d="M98.7161 97.4316H93.5808C92.8175 97.4316 92.297 97.9521 92.297 98.7155C92.297 99.4788 92.8175 99.9993 93.5808 99.9993H98.7161C99.4795 99.9993 100 99.4788 100 98.7155C100 97.9521 99.4795 97.4316 98.7161 97.4316Z" fill="black"/>
<path d="M37.1964 97.4316H1.28383C0.520472 97.4316 0 97.9521 0 98.7155C0 99.4788 0.520472 99.9993 1.28383 99.9993H37.1964C37.9597 99.9993 38.4802 99.4788 38.4802 98.7155C38.4455 97.9521 37.9597 97.4316 37.1964 97.4316Z" fill="black"/>
<path d="M32.0608 66.6543C28.4868 66.6543 25.6416 69.4648 25.6416 73.0735C25.6416 76.6474 28.4521 79.4926 32.0608 79.4926C35.6347 79.4926 38.4799 76.6821 38.4799 73.0735C38.4452 69.4995 35.6347 66.6543 32.0608 66.6543ZM32.0608 76.9249C30.0136 76.9249 28.2093 75.1206 28.2093 73.0735C28.2093 71.0263 30.0136 69.222 32.0608 69.222C34.1079 69.222 35.9122 71.0263 35.9122 73.0735C35.9122 75.1206 34.1079 76.9249 32.0608 76.9249Z" fill="black"/>
<path d="M119.223 79.4926C122.797 79.4926 125.642 76.6821 125.642 73.0735C125.642 69.4995 122.832 66.6543 119.223 66.6543C115.649 66.6543 112.804 69.4648 112.804 73.0735C112.804 76.6821 115.649 79.4926 119.223 79.4926ZM119.223 69.222C121.27 69.222 123.074 71.0263 123.074 73.0735C123.074 75.1206 121.27 76.9249 119.223 76.9249C117.176 76.9249 115.371 75.1206 115.371 73.0735C115.371 71.0263 117.176 69.222 119.223 69.222Z" fill="black"/>
<path d="M16.9321 37.1959C17.3138 37.3347 17.6261 37.1612 18.3548 35.9121H16.2035L16.0994 36.1897C15.8565 36.9531 16.1688 36.9184 16.9321 37.1959Z" fill="#51565F"/>
<path d="M16.2734 73.4567C16.2734 73.8384 16.3081 74.0466 15.4407 74.1854C15.9958 82.8946 23.2131 89.7301 32.0611 89.7301C40.7703 89.7301 47.9528 83.0681 48.7162 74.3588H93.5809C98.9244 74.3588 101.423 74.2201 102.568 73.9425C102.568 73.6649 102.533 73.3526 102.533 73.075C102.533 72.6586 102.568 72.2076 102.602 71.7912H48.7162C47.9528 63.082 40.7703 56.4199 32.0611 56.4199C23.2478 56.4199 16.0999 63.1861 15.4407 71.7912H15.8224C16.5857 71.7912 16.2734 72.6933 16.2734 73.4567ZM32.0611 58.9876C39.7641 58.9876 46.1485 65.4067 46.1485 73.075C46.1485 80.778 39.7294 87.1625 32.0611 87.1625C24.3581 87.1625 17.9736 80.7433 17.9736 73.075C17.9389 65.372 24.3581 58.9876 32.0611 58.9876Z" fill="black"/>
<path d="M126.024 38.4464H119.223C116.482 38.4464 114.4 37.2319 112.942 35.8787H93.338L97.4323 27.4124C97.6752 27.4124 97.6752 27.1695 97.6752 26.8919C97.6752 26.649 97.4323 26.1285 96.9119 25.8509C96.1485 25.6081 95.3851 25.8509 95.1076 26.3714L90.2498 35.844H58.9868V11.5553C58.9868 10.792 58.4663 10.2715 57.703 10.2715C56.9396 10.2715 56.4192 10.792 56.4192 11.5553V35.9134H18.3553C17.5919 37.1625 17.3144 37.336 16.9327 37.1972C16.1693 36.9543 15.857 36.9543 16.0999 36.191L16.204 35.9134H6.41915C2.81055 35.9134 0 38.7239 0 42.2979V67.9398C0 71.5137 2.81055 74.3589 6.41915 74.3589H7.70298C12.3178 74.3589 14.4691 74.3242 15.4407 74.1854C15.406 73.8037 15.406 73.4568 15.406 73.0751C15.406 72.6587 15.4407 72.2076 15.4754 71.7913H6.45385C4.40666 71.7913 2.60236 69.987 2.60236 67.9398V53.8523H6.45385C7.21721 53.8523 7.73768 53.3319 7.73768 52.5685C7.73768 51.8051 7.21721 51.2847 6.45385 51.2847H2.56766V42.2979C2.56766 40.2507 4.37196 38.4464 6.41915 38.4464H56.9396L61.7974 63.0473C62.0403 63.8107 62.5607 64.3312 63.3241 64.0883C64.0874 63.8454 64.6079 63.3249 64.365 62.5616L59.5073 38.4464H91.2908H126.024Z" fill="black"/>
<path d="M16.2729 73.4565C16.2729 72.6932 16.6199 71.791 15.8218 71.791H15.4401C15.4054 72.2074 15.3707 72.6238 15.3707 73.0749C15.3707 73.4565 15.3707 73.8035 15.4054 74.1852C16.3076 74.0464 16.2729 73.8382 16.2729 73.4565Z" fill="#51565F"/>
</g>
<defs>
<clipPath id="clip0">
<rect width="151.284" height="100" fill="white"/>
</clipPath>
</defs>
</svg>
