<svg width="111" height="100" viewBox="0 0 111 100" fill="none" xmlns="http://www.w3.org/2000/svg">
<g clip-path="url(#clip0)">
<path d="M94.1726 14.6824H73.5368V9.23331C73.5368 4.51585 71.216 1.53906 68.441 1.53906H41.4985C40.0606 1.53906 38.0424 2.92655 37.1595 4.44017C36.2765 6.13038 36.5035 7.56833 36.5035 10.0154V14.6824H15.2371C7.06359 14.6824 0.378418 21.3675 0.378418 29.5411V83.6026C0.378418 91.7762 7.06359 98.4614 15.2371 98.4614H94.1726C102.346 98.4614 109.031 91.7762 109.031 83.6026V29.5411C109.031 21.3675 102.346 14.6824 94.1726 14.6824ZM43.2392 9.81353C44.3492 8.12332 45.6105 7.01333 47.3764 7.01333H62.6892C64.3542 7.01333 65.2372 7.71969 66.4733 9.4099L66.9526 10.4442C67.0283 10.5956 67.1796 11.201 67.2301 13.8499V14.6824H42.7094C42.6842 12.1596 42.7346 11.2767 43.2392 9.81353ZM82.3159 66.1708C82.215 66.2717 82.114 66.3221 81.9375 66.3978L72.4773 71.6702C72.3764 71.6955 72.3007 71.7459 72.2503 71.7964L72.225 71.8216L70.4844 72.6793L69.5257 74.7227V74.7984L69.5005 74.8236L64.1776 84.3595C64.0515 84.5865 63.8497 84.7631 63.5974 84.8135C63.4965 84.8388 63.3956 84.864 63.2947 84.864C63.1433 84.864 63.0172 84.8388 62.8658 84.7883L62.7901 84.7379C62.7144 84.6874 62.664 84.6622 62.6388 84.6369L62.5883 84.5865L58.2493 80.2222C57.8961 79.9195 58.0222 79.3393 58.0727 79.2384L60.4945 71.0648L49.4955 60.646L37.6892 81.9881C37.5631 82.2152 37.3865 82.3917 37.109 82.4674C36.882 82.5431 36.6297 82.5179 36.4026 82.4422L36.327 82.3917C36.2513 82.3413 36.226 82.3161 36.1756 82.2908L36.1251 82.2404L30.4995 76.64C30.1463 76.3372 30.2725 75.7823 30.3229 75.6561L38.0929 49.975L28.6579 41.0698L28.4561 40.868C27.1948 39.6067 26.4884 37.8408 26.4884 35.9235C26.4884 34.1324 27.1948 32.3413 28.4561 30.979L28.8345 30.6006C30.2472 29.2888 31.9122 28.6077 33.779 28.6077C35.5954 28.6077 37.3108 29.2384 38.5469 30.424L38.5974 30.4997L38.6731 30.6763L47.7044 40.2374L73.3603 32.3917C73.7387 32.2908 74.1675 32.3917 74.4198 32.644L79.8688 38.3958C80.2977 38.8246 80.2977 39.4301 79.8688 39.8589C79.7932 39.9346 79.6923 39.9851 79.4904 40.086L58.3754 51.7913L68.7942 62.7903L77.0434 60.2676C77.4218 60.1667 77.8759 60.2676 78.1282 60.5199L82.3159 64.7076C82.77 65.1364 82.77 65.7419 82.3159 66.1708Z" fill="#00A5E1"/>
<path d="M106.13 19.223C103.153 16.2462 99.218 14.6065 95.0555 14.6065H75.9839V7.87084C75.9839 5.77699 75.2018 3.85974 73.7639 2.4218L73.663 2.32089C72.1493 0.807265 70.2321 0 68.113 0H42.7346C40.6408 0 38.6731 0.832492 37.1847 2.32089C35.671 3.83451 34.8638 5.75177 34.8638 7.87084V14.6317H15.6912C11.5288 14.6317 7.56811 16.2714 4.61655 19.2482C1.63976 22.1998 0 26.1352 0 30.3229V84.3088C0 88.4712 1.63976 92.4319 4.61655 95.3835C7.59334 98.3602 11.5288 100 15.6912 100H95.0303C99.1927 100 103.153 98.3602 106.105 95.3835C109.082 92.4067 110.721 88.4712 110.721 84.3088V30.3229C110.747 26.1352 109.107 22.1998 106.13 19.223ZM42.6337 2.16953H67.9112C69.4501 2.16953 70.888 2.74975 71.9727 3.83451L72.0737 3.93542C73.1332 4.99495 73.7134 6.40767 73.7134 7.89606V14.6569H67.5076V11.7306C67.3058 10.116 67.003 9.48537 66.0696 8.62765L65.9183 8.47629C64.9849 7.64379 63.7487 7.18971 62.4622 7.18971H48.0575C46.8466 7.18971 45.5853 7.66902 44.5257 8.52674C43.8446 9.15742 43.0121 10.217 43.0121 11.7053V14.6065H36.8315V6.86176H37.0081L37.0838 6.55903C37.3108 5.52472 37.8406 4.56609 38.5974 3.80928C39.6065 2.77497 41.1201 2.16953 42.6337 2.16953ZM45.1816 11.7306C45.1816 10.999 45.6357 10.444 45.888 10.1917C46.4178 9.66196 47.1998 9.38446 48.0575 9.38446H62.664C63.3703 9.38446 64.1019 9.63673 64.7074 10.0908L64.8335 10.1917L64.9344 10.2926C65.2119 10.5701 65.6408 11.1251 65.6408 11.8315V14.6065H45.1312V11.7306H45.1816ZM95.1564 97.8305H15.6912C12.1847 97.8305 8.77901 96.443 6.13017 93.8951C3.55701 91.3219 2.16953 87.9162 2.16953 84.2836V30.2977C2.16953 26.7911 3.55701 23.3855 6.10494 20.7366C8.6781 18.1635 12.0838 16.776 15.7164 16.776H95.0555C98.5621 16.776 101.968 18.1635 104.617 20.7114C107.19 23.2846 108.577 26.6902 108.577 30.3229V83.2997H108.678V84.3088C108.678 87.8153 107.291 91.221 104.743 93.8698C102.195 96.4178 98.7891 97.8305 95.1564 97.8305Z" fill="black"/>
<path d="M78.2795 60.7968C78.002 60.5193 77.5479 60.4184 77.1695 60.5445L68.7689 63.1177L58.1484 51.8916L79.667 39.9593C79.8688 39.8583 79.9445 39.8079 80.0454 39.7322C80.4743 39.3034 80.4743 38.6727 80.0454 38.2438L74.4955 32.3659C74.2432 32.1136 73.7891 32.0127 73.4107 32.1136L47.2503 40.1106L38.0424 30.3478L37.9667 30.1712L37.9163 30.0955C36.6297 28.9098 34.9142 28.2539 33.0474 28.2539C31.1302 28.2539 29.44 28.935 28.002 30.2721L27.5984 30.6757C26.3371 32.038 25.6055 33.8795 25.6055 35.6959C25.6055 37.6384 26.3118 39.4295 27.5984 40.7161L27.8002 40.9179L37.4117 49.9996L29.4904 76.1853C29.4652 76.3114 29.3138 76.8917 29.667 77.1944L35.3936 82.8957L35.444 82.9461C35.4945 82.9714 35.5449 83.0218 35.5954 83.0471L35.6711 83.0975C35.9233 83.1984 36.1756 83.1984 36.4026 83.1227C36.6549 83.0471 36.8567 82.8705 36.9829 82.6434L49.0162 60.8977L60.217 71.5183L57.7447 79.8432C57.7195 79.9693 57.5681 80.5496 57.9213 80.8523L62.3865 85.3175L62.437 85.3679C62.4874 85.3932 62.5379 85.4436 62.6135 85.4688L62.6892 85.5193C62.8406 85.5698 62.9667 85.595 63.1181 85.595C63.219 85.595 63.3199 85.5698 63.4208 85.5445C63.6731 85.4688 63.8749 85.2923 64.001 85.0652L69.4248 75.3528L69.4501 75.3276V75.2519L70.4339 73.158L72.1998 72.2751L72.225 72.2499C72.3007 72.1994 72.3764 72.1742 72.4773 72.1237L82.114 66.7504C82.2906 66.6495 82.3915 66.599 82.4925 66.5233C82.9213 66.0945 82.9213 65.4638 82.4925 65.0349L78.2795 60.7968ZM62.3865 70.3831L49.6973 58.4002C49.4198 58.1227 49.0918 58.0975 48.9657 58.1227C48.6882 58.1227 48.4107 58.2489 48.2341 58.4507L48.1837 58.5011C48.1584 58.5516 48.0828 58.7029 48.0575 58.7534L35.999 80.2216L31.8113 76.0339L39.8083 49.8987C39.9092 49.4194 39.8083 49.0158 39.5056 48.7635L29.3391 39.1015C28.4309 38.1934 27.8759 36.9068 27.8759 35.6707C27.8759 34.3841 28.3804 33.1227 29.2634 32.0884L29.5661 31.7857C30.6004 30.8775 31.887 30.373 33.1736 30.373C34.5358 30.373 35.7215 30.8271 36.6045 31.71L46.3673 42.0026C46.6196 42.3054 46.9728 42.4063 47.2755 42.2549L47.3764 42.2045L73.663 34.3084L77.8507 38.4961L56.0797 50.6555C55.8275 50.7817 55.6509 50.9835 55.5752 51.261C55.4995 51.488 55.5247 51.7403 55.6257 52.0178L55.6761 52.0935C55.7266 52.1439 55.7518 52.1944 55.777 52.2448L55.8275 52.3205L67.8608 65.1106C68.113 65.4133 68.4662 65.5143 68.7689 65.3881L77.2957 62.7645L80.2472 65.7161L71.5439 70.5597L69.4501 71.6192C69.223 71.7201 69.0717 71.8967 68.9708 72.0985L67.9112 74.2176L63.0676 82.9209L60.1161 79.9693L62.6892 71.5687C62.7901 71.0138 62.6892 70.6101 62.3865 70.3831Z" fill="black"/>
</g>
<defs>
<clipPath id="clip0">
<rect width="110.747" height="100" fill="white"/>
</clipPath>
</defs>
</svg>
