<svg width="43" height="52" viewBox="0 0 43 52" fill="none" xmlns="http://www.w3.org/2000/svg">
<path d="M42.6166 22.8632L22.0438 2.55555C21.7092 2.22524 21.1666 2.22524 20.8319 2.55555L0.261755 22.8632C-0.078724 23.1878 -0.0881518 23.7236 0.240649 24.0597C0.569451 24.3958 1.1121 24.4051 1.45257 24.0805C1.45975 24.0738 1.46672 24.0668 1.47368 24.0597L21.4345 4.35025L41.4047 24.0597C41.7451 24.3844 42.2877 24.3751 42.6166 24.039C42.9375 23.711 42.9375 23.1911 42.6166 22.8632Z" fill="#008BD0"/>
<path d="M21.4345 49.6923H7.15106C6.61238 49.6679 6.11591 49.3974 5.808 48.9603C5.37163 48.3718 5.14172 47.6589 5.15318 46.9296V25.1538C5.15318 24.6865 4.76942 24.3077 4.29609 24.3077C4.29491 24.3077 4.29384 24.3077 4.29266 24.3077C3.81933 24.3077 3.43557 24.6865 3.43557 25.1538V46.927C3.42057 48.0347 3.77841 49.1159 4.45294 50.0011C5.08676 50.8498 6.08323 51.3608 7.15106 51.3846H21.4345C21.9078 51.3846 22.2916 51.0057 22.2916 50.5384C22.2916 50.0711 21.9079 49.6923 21.4345 49.6923Z" fill="#008BD0"/>
<path d="M35.8681 0.615356H34.435C32.9006 0.651847 31.6858 1.90796 31.7198 3.42289V8.71389C31.7198 9.18118 32.1035 9.56005 32.5769 9.56005C33.0502 9.56005 33.434 9.18118 33.434 8.71389V3.42289C33.4007 2.84275 33.8477 2.34489 34.435 2.30766H35.8681C36.4526 2.34839 36.8956 2.84529 36.8623 3.42289V14.1538C36.8623 14.6211 37.2461 15 37.7194 15C38.1927 15 38.5765 14.6211 38.5765 14.1538V3.42289C38.6106 1.9105 37.3999 0.655549 35.8681 0.615356Z" fill="#008BD0"/>
<path d="M24.8625 13.3077H20.0782L22.0435 11.3674C22.3781 11.037 22.3781 10.5014 22.0435 10.171C21.7088 9.84065 21.1663 9.84065 20.8316 10.171L17.4032 13.5556C17.0685 13.8861 17.0686 14.4218 17.4034 14.7523C17.5633 14.9101 17.7798 14.999 18.0057 15H24.8625C25.3358 15 25.7195 14.6211 25.7195 14.1538C25.7195 13.6865 25.3359 13.3077 24.8625 13.3077Z" fill="#008BD0"/>
<path d="M31.2756 22.7186C30.8598 22.4952 30.3393 22.6469 30.113 23.0573C30.0887 23.1013 30.0685 23.1475 30.0525 23.195L29.8065 23.926C28.9057 26.6001 27.288 28.9832 25.1251 30.8222C22.2744 32.8338 20.5812 36.0791 20.5774 39.5384C20.5835 45.1438 25.1846 49.6862 30.8624 49.6923C36.5402 49.6862 41.1414 45.1438 41.1475 39.5384V39.1407C41.1495 32.2954 37.3628 25.9963 31.2756 22.7186ZM39.4333 39.5384C39.4333 44.2116 35.596 48 30.8624 48C26.1288 48 22.2915 44.2116 22.2915 39.5384C22.3016 36.6011 23.75 33.8499 26.1793 32.154C28.5361 30.1686 30.3181 27.6024 31.3441 24.7163C36.3788 27.8265 39.4357 33.2775 39.4333 39.1407V39.5384Z" fill="#008BD0"/>
<path d="M36.0053 39.4394C35.5319 39.4394 35.1482 39.8183 35.1482 40.2856V40.498C35.1482 42.8345 33.2295 44.7287 30.8627 44.7287C28.496 44.7287 26.5773 42.8345 26.5773 40.498C26.5905 39.041 27.3272 37.6833 28.5486 36.8654C29.6343 35.9743 30.5115 34.8614 31.1199 33.6035C32.1729 35.3071 32.2619 37.4262 31.3556 39.2101L30.9527 40.0064C30.7411 40.4246 30.9131 40.933 31.3367 41.1419C31.7603 41.3508 32.2753 41.181 32.4869 40.7628L32.8889 39.9674C34.3526 37.0856 33.7802 33.602 31.4687 31.3248C31.1337 30.9946 30.591 30.9951 30.2566 31.3259C30.1641 31.4173 30.0941 31.5283 30.0519 31.6506L29.9165 32.0407C29.4508 33.3942 28.6212 34.5974 27.5167 35.5217C25.862 36.6531 24.8713 38.511 24.8631 40.498C24.8989 43.7362 27.5826 46.3349 30.8627 46.3077C34.1428 46.3349 36.8266 43.7362 36.8624 40.498V40.2856C36.8624 39.8183 36.4787 39.4394 36.0053 39.4394Z" fill="#008BD0"/>
</svg>
