<svg width="68" height="52" viewBox="0 0 68 52" fill="none" xmlns="http://www.w3.org/2000/svg">
<path d="M60.6378 0H7.12287C6.2025 0 5.45553 0.747433 5.45553 1.66838V36.4774L0.0800322 47.0883V47.1016C0.0666935 47.1283 0.0533548 47.155 0.0533548 47.1684L0.0400161 47.1951C0.0266774 47.2218 0.0266774 47.2485 0.0133387 47.2752V47.2885C0.0133387 47.3018 0 47.3285 0 47.3686V47.4086C0 47.422 0 47.422 0 47.4353V49.9713C0 51.0924 0.907032 52 2.02748 52H65.7198C66.8403 52 67.7473 51.0924 67.7473 49.9713V47.4353C67.7473 47.422 67.7473 47.4086 67.7473 47.4086V47.3686C67.7473 47.3419 67.7339 47.3152 67.7339 47.2885C67.7206 47.2618 67.7206 47.2351 67.7073 47.2084L67.6939 47.1817C67.6806 47.155 67.6806 47.1417 67.6673 47.115L67.6539 47.0883L62.2784 36.4774V1.66838C62.3051 0.747433 61.5581 0 60.6378 0ZM6.92279 1.46817H60.8378V35.9168H6.92279V1.46817ZM66.2934 49.9713C66.2934 50.2782 66.0399 50.5318 65.7331 50.5318H2.02748C1.72069 50.5318 1.46726 50.2782 1.46726 49.9713V48.1694H66.2934V49.9713ZM26.0638 46.6879L27.1443 42.7639H40.6164L41.6968 46.6879H26.0638ZM65.8265 46.6879H43.2174L42.0569 42.4836C41.8702 41.7895 41.2166 41.2957 40.4963 41.2957H27.2643C26.544 41.2957 25.9038 41.7895 25.7037 42.4836L24.5432 46.6879H1.93411L6.64268 37.385H61.118L65.8265 46.6879Z" fill="#008BD0"/>
<path d="M10.3241 20.6348C9.92392 20.6348 9.59045 20.9684 9.59045 21.3689V31.953C9.59045 32.6738 10.1774 33.2611 10.8976 33.2611H56.8628C57.5831 33.2611 58.17 32.6738 58.17 31.953V21.3689C58.17 20.9684 57.8366 20.6348 57.4364 20.6348C57.0362 20.6348 56.7028 20.9684 56.7028 21.3689V31.7929H11.0577V21.3689C11.0577 20.9551 10.7376 20.6348 10.3241 20.6348Z" fill="#008BD0"/>
<path d="M57.4364 16.763C57.8366 16.763 58.17 16.4293 58.17 16.0289V5.44473C58.17 4.72399 57.5831 4.13672 56.8628 4.13672H10.8976C10.1774 4.13672 9.59045 4.72399 9.59045 5.44473V16.0289C9.59045 16.4293 9.92392 16.763 10.3241 16.763C10.7242 16.763 11.0577 16.4293 11.0577 16.0289V5.60489H56.7028V16.0289C56.7028 16.4293 57.0229 16.763 57.4364 16.763Z" fill="#008BD0"/>
</svg>
