<svg width="60" height="52" viewBox="0 0 60 52" fill="none" xmlns="http://www.w3.org/2000/svg">
<path d="M58.9325 49.8885H1.132C0.720922 49.8885 0.384583 50.2251 0.384583 50.6366C0.384583 51.048 0.720922 51.3846 1.132 51.3846H58.9325C59.3436 51.3846 59.68 51.048 59.68 50.6366C59.68 50.2251 59.3436 49.8885 58.9325 49.8885Z" fill="#008BD0"/>
<path d="M44.632 28.0084C46.0271 29.4048 48.2819 29.4048 49.677 28.0084C51.0722 26.6121 51.0722 24.3555 49.677 22.9592L39.537 12.8108C39.2505 12.5241 38.7772 12.5241 38.4782 12.8108L31.0289 20.2662L23.8412 13.0726L24.327 12.9978C28.6371 12.3495 31.7763 8.72153 31.7763 4.37045V4.19591C31.7763 2.68737 30.5431 1.4531 29.0358 1.4531C27.5285 1.4531 26.2952 2.68737 26.2952 4.19591C26.2952 6.07847 24.763 7.61194 22.882 7.61194C21.1505 7.61194 19.4563 7.92363 17.8369 8.50959L17.3511 8.68413L17.513 8.18544C17.9989 6.73923 17.8992 5.18082 17.2265 3.80942C16.5538 2.43802 15.3829 1.4157 13.9254 0.91701C10.9357 -0.09284 7.672 1.51544 6.66298 4.50759C5.65396 7.49974 7.26091 10.7662 10.2506 11.776C10.724 11.9506 11.2222 12.0378 11.7205 12.0752L12.2562 12.1126L11.571 12.8108C7.43531 16.9499 7.43531 23.6947 11.571 27.8339L11.9448 28.2079C12.4804 28.744 13.2029 29.0432 13.9628 29.0432C13.9628 29.0432 13.9628 29.0432 13.9752 29.0432C14.7351 29.0432 15.4576 28.744 15.9933 28.1954C16.5289 27.6593 16.8279 26.9362 16.8279 26.1757C16.8279 25.4152 16.5289 24.6797 15.9933 24.156L15.6196 23.782C13.9877 22.1488 13.7136 19.6429 14.9593 17.6855L15.1213 17.4237L29.6213 31.9356H21.0633C20.6522 31.9356 20.3159 32.2722 20.3159 32.6837C20.3159 33.0951 20.6522 33.4317 21.0633 33.4317H31.1161L32.2746 34.5912V43.6549C32.2746 44.3156 32.449 44.9515 32.7853 45.525L32.9971 45.899H26.0461C25.635 45.899 25.2987 46.2356 25.2987 46.647C25.2987 47.0584 25.635 47.3951 26.0461 47.3951H36.0117C38.0671 47.3951 39.7488 45.712 39.7488 43.6549V31.2873C39.7488 31.0878 39.6741 30.9008 39.5246 30.7637L35.0774 26.3004L39.0014 22.3732L44.632 28.0084ZM12.0942 10.6041C9.76477 10.6041 7.85885 8.6966 7.85885 6.36522C7.85885 4.03383 9.76477 2.12634 12.0942 2.12634C14.4237 2.12634 16.3296 4.03383 16.3296 6.36522C16.3296 8.6966 14.4237 10.6041 12.0942 10.6041ZM33.4954 25.7768C33.2089 26.0635 33.2089 26.5373 33.4954 26.8365L38.254 31.599V43.6549C38.254 44.8891 37.2449 45.899 36.0117 45.899C34.7785 45.899 33.7694 44.8891 33.7694 43.6549V34.2795C33.7694 34.08 33.6947 33.893 33.5452 33.7558L15.6071 15.803C15.3206 15.5162 14.8472 15.5162 14.5483 15.803C12.0693 18.2964 12.0693 22.3483 14.5483 24.8417L14.922 25.2158C15.1836 25.4776 15.3206 25.8142 15.3206 26.1882C15.3206 26.5498 15.1836 26.8988 14.922 27.1607C14.6728 27.41 14.3116 27.5596 13.9503 27.5596C13.5891 27.5596 13.2403 27.4225 12.9787 27.1607L12.605 26.7866C9.05472 23.2335 9.05472 17.4362 12.605 13.883L13.477 13.0103C15.9559 10.5168 19.3691 9.09555 22.8571 9.09555C22.8696 9.09555 22.882 9.09555 22.8945 9.09555C25.5976 9.09555 27.7901 6.88884 27.8025 4.19591C27.8025 3.51021 28.3631 2.94918 29.0482 2.94918C29.7334 2.94918 30.2939 3.51021 30.2939 4.19591V4.37045C30.2939 8.34751 27.0427 11.6015 23.0689 11.6015C22.6578 11.6015 22.3214 11.9381 22.3214 12.3495V13.3469C22.3214 13.5464 22.3962 13.7334 22.5457 13.8705L30.5182 21.8496C30.8047 22.1363 31.278 22.1363 31.577 21.8496L39.0263 14.4066L48.6307 24.0189C49.4404 24.8293 49.4279 26.1508 48.6182 26.9487C48.232 27.3352 47.7213 27.5471 47.1732 27.5471C46.6251 27.5471 46.1019 27.3352 45.7033 26.9362L39.5495 20.7899C39.263 20.5031 38.7896 20.5031 38.4906 20.7899L33.4954 25.7768Z" fill="#008BD0"/>
<path d="M22.0599 45.899H20.0668C19.6557 45.899 19.3193 46.2356 19.3193 46.647C19.3193 47.0584 19.6557 47.3951 20.0668 47.3951H22.0599C22.471 47.3951 22.8073 47.0584 22.8073 46.647C22.8073 46.2356 22.471 45.899 22.0599 45.899Z" fill="#008BD0"/>
<path d="M17.0772 31.9357H15.084C14.6729 31.9357 14.3366 32.2723 14.3366 32.6837C14.3366 33.0951 14.6729 33.4317 15.084 33.4317H17.0772C17.4882 33.4317 17.8246 33.0951 17.8246 32.6837C17.8246 32.2723 17.4882 31.9357 17.0772 31.9357Z" fill="#008BD0"/>
</svg>
