<svg width="33" height="33" viewBox="0 0 33 33" fill="none" xmlns="http://www.w3.org/2000/svg">
<path d="M32.7619 16.4444C32.7619 25.5265 25.4279 32.8889 16.381 32.8889C7.334 32.8889 0 25.5265 0 16.4444C0 7.36243 7.334 0 16.381 0C25.4279 0 32.7619 7.36243 32.7619 16.4444Z" fill="#3B5998"/>
<path d="M32.7619 16.4444C32.7619 25.5265 25.4279 32.8889 16.381 32.8889C7.334 32.8889 0 25.5265 0 16.4444C0 7.36243 7.334 0 16.381 0C25.4279 0 32.7619 7.36243 32.7619 16.4444Z" fill="#3B5998"/>
<path d="M20.0371 16.8436H17.7419V25.2997H14.2531V16.8436H12.6006V13.8713H14.2531V11.9589C14.2531 10.5764 14.8958 8.43359 17.7648 8.43359H20.3355V11.3137H18.4534C18.155 11.3137 17.7189 11.475 17.7189 12.1202V13.8713H20.3125L20.0371 16.8436Z" fill="white"/>
</svg>
