<svg width="33" height="33" viewBox="0 0 33 33" fill="none" xmlns="http://www.w3.org/2000/svg">
<path d="M32.7619 16.4444C32.7619 25.5265 25.4279 32.8889 16.381 32.8889C7.334 32.8889 0 25.5265 0 16.4444C0 7.36243 7.334 0 16.381 0C25.4279 0 32.7619 7.36243 32.7619 16.4444Z" fill="#0E76A8"/>
<path d="M32.7619 16.4444C32.7619 25.5265 25.4279 32.8889 16.381 32.8889C7.334 32.8889 0 25.5265 0 16.4444C0 7.36243 7.334 0 16.381 0C25.4279 0 32.7619 7.36243 32.7619 16.4444Z" fill="#0E76A8"/>
<path d="M12.1577 12.8604H8.40049V24.4558H12.1577V12.8604Z" fill="white"/>
<path d="M22.3926 12.9958C22.3532 12.9826 22.3138 12.9694 22.2744 12.9562C22.2252 12.9431 22.1727 12.9365 22.1235 12.9266C21.9233 12.8871 21.7067 12.8574 21.4508 12.8574C19.2588 12.8574 17.8707 14.4551 17.4146 15.0744V12.8607H13.6508V24.4562H17.408V18.1314C17.408 18.1314 20.2465 14.1619 21.4442 17.0773C21.4442 19.6796 21.4442 24.4562 21.4442 24.4562H25.2015V16.6325C25.2015 14.88 24.007 13.4207 22.3926 12.9958Z" fill="white"/>
<path d="M10.2381 11.2793C11.253 11.2793 12.0757 10.4534 12.0757 9.43457C12.0757 8.41576 11.253 7.58984 10.2381 7.58984C9.22321 7.58984 8.40049 8.41576 8.40049 9.43457C8.40049 10.4534 9.22321 11.2793 10.2381 11.2793Z" fill="white"/>
</svg>
