<svg width="33" height="33" viewBox="0 0 33 33" fill="none" xmlns="http://www.w3.org/2000/svg">
<ellipse cx="16.381" cy="16.4444" rx="16.381" ry="16.4444" fill="#00BCF8"/>
<path d="M24.0553 12.4602C24.0676 12.6369 24.0676 12.8137 24.0676 12.9904C24.0676 18.3803 20.0832 24.5907 12.801 24.5907C10.5575 24.5907 8.47335 23.9216 6.72021 22.7604C7.03898 22.7982 7.34544 22.8109 7.67646 22.8109C9.52764 22.8109 11.2318 22.1671 12.5926 21.0689C10.8517 21.0311 9.3928 19.8572 8.89015 18.2414C9.13536 18.2793 9.38054 18.3045 9.63802 18.3045C9.99354 18.3045 10.3491 18.254 10.6801 18.1657C8.86566 17.787 7.5048 16.1461 7.5048 14.1643V14.1138C8.03194 14.4168 8.64498 14.6061 9.29469 14.6313C8.2281 13.8992 7.52933 12.6496 7.52933 11.2358C7.52933 10.4785 7.72545 9.78421 8.06874 9.17831C10.018 11.6524 12.9481 13.268 16.2336 13.4448C16.1724 13.1418 16.1356 12.8263 16.1356 12.5107C16.1356 10.2639 17.901 8.43359 20.0954 8.43359C21.2356 8.43359 22.2654 8.92588 22.9887 9.72111C23.8836 9.5444 24.7418 9.20357 25.5019 8.73654C25.2077 9.68327 24.5824 10.4785 23.7611 10.9834C24.5579 10.8951 25.3303 10.6678 26.0413 10.3523C25.502 11.1601 24.8277 11.8795 24.0553 12.4602Z" fill="white"/>
</svg>
