<svg width="32" height="32" viewBox="0 0 32 32" fill="none" xmlns="http://www.w3.org/2000/svg">
<circle cx="16" cy="16" r="16" fill="#1BD741"/>
<path d="M6.21359 25.9141L7.59179 21.0192C6.70553 19.5135 6.23891 17.8005 6.23891 16.0407C6.23891 10.6221 10.6472 6.21387 16.0657 6.21387C21.4842 6.21387 25.8924 10.6221 25.8924 16.0407C25.8924 21.4592 21.4842 25.8674 16.0657 25.8674C14.3773 25.8674 12.7241 25.4353 11.2615 24.6146L6.21359 25.9141ZM11.5196 22.8269L11.8204 23.0105C13.0956 23.789 14.5636 24.2005 16.0657 24.2005C20.565 24.2005 24.2255 20.54 24.2255 16.0407C24.2255 11.5413 20.565 7.88082 16.0657 7.88082C11.5664 7.88082 7.90585 11.5413 7.90585 16.0407C7.90585 17.6084 8.35142 19.1308 9.19428 20.4433L9.39685 20.7587L8.60319 23.5776L11.5196 22.8269Z" fill="white"/>
<path d="M13.3052 11.4666L12.6676 11.4318C12.4673 11.4209 12.2709 11.4878 12.1195 11.6193C11.8103 11.8878 11.3161 12.4067 11.1642 13.083C10.9378 14.0914 11.2877 15.3262 12.1932 16.561C13.0988 17.7957 14.7863 19.7714 17.7703 20.6152C18.7319 20.8871 19.4883 20.7038 20.0719 20.3304C20.5342 20.0348 20.8528 19.5602 20.9676 19.0237L21.0694 18.5481C21.1018 18.397 21.0251 18.2437 20.8847 18.1789L18.7297 17.1856C18.5898 17.1212 18.4239 17.1619 18.3298 17.2839L17.4838 18.3806C17.4199 18.4634 17.3105 18.4963 17.2117 18.4616C16.6323 18.258 14.6916 17.4452 13.6268 15.394C13.5806 15.305 13.5921 15.197 13.6576 15.1211L14.4661 14.1858C14.5487 14.0903 14.5696 13.956 14.5199 13.8399L13.591 11.6667C13.5416 11.551 13.4307 11.4734 13.3052 11.4666Z" fill="white"/>
</svg>
