<svg width="21" height="20" viewBox="0 0 21 20" fill="none" xmlns="http://www.w3.org/2000/svg">
<path d="M20.3368 4.13552H19.3018V3.79055C19.3018 3.58522 19.1622 3.44559 18.9569 3.44559C18.7515 3.44559 18.6119 3.58522 18.6119 3.79055V4.13552H17.232V3.79055C17.232 3.58522 17.0924 3.44559 16.8871 3.44559C16.6817 3.44559 16.5421 3.58522 16.5421 3.79055V4.13552H15.1622V1.03491C15.1622 0.829569 15.0226 0.689938 14.8172 0.689938H11.7166V0.344969C11.7166 0.13963 11.577 0 11.3717 0C11.1663 0 11.0267 0.13963 11.0267 0.344969V0.689938H9.65092V0.344969C9.65092 0.13963 9.51129 0 9.30596 0C9.10062 0 8.96099 0.13963 8.96099 0.344969V0.689938H5.86037C5.65503 0.689938 5.5154 0.829569 5.5154 1.03491V4.13552H4.13552V3.79055C4.13552 3.58522 3.99589 3.44559 3.79055 3.44559C3.58522 3.44559 3.44559 3.58522 3.44559 3.79055V4.13552H2.06982V3.79055C2.06982 3.58522 1.93018 3.44559 1.72485 3.44559C1.51951 3.44559 1.37988 3.58522 1.37988 3.79055V4.13552H0.344969C0.13963 4.13552 0 4.27515 0 4.48049V16.8912V19.6468C0 19.8522 0.13963 19.9918 0.344969 19.9918H5.86037H7.58522H13.1006H14.8255H20.3409C20.5462 19.9918 20.6858 19.8522 20.6858 19.6468V16.8912V4.48049C20.6817 4.27515 20.5421 4.13552 20.3368 4.13552ZM19.9918 4.82546V16.5462H15.1663V4.82546H19.9918ZM0.689938 4.82546H5.5154V16.5462H0.689938V4.82546ZM0.689938 17.2361H5.5154V19.3018H0.689938V17.2361ZM6.20534 16.8912V4.48049V1.37988H14.4764V4.48049V16.8912V19.3018H13.4415V16.2012C13.4415 15.9959 13.3018 15.8563 13.0965 15.8563H7.58522C7.37988 15.8563 7.24025 15.9959 7.24025 16.2012V19.3018H6.20534V16.8912ZM7.92608 16.5462H9.99589V19.3018H7.92608V16.5462ZM10.6858 19.3018V16.5462H12.7556V19.3018H10.6858ZM19.9918 19.3018H15.1663V17.232H19.9918V19.3018Z" fill="#008BD0"/>
<path d="M8.27099 5.1704H8.96093C9.33876 5.1704 9.65087 4.85829 9.65087 4.48046V3.79052C9.65087 3.4127 9.33876 3.10059 8.96093 3.10059H8.27099C7.89317 3.10059 7.58105 3.4127 7.58105 3.79052V4.48046C7.58516 4.85829 7.89317 5.1704 8.27099 5.1704ZM8.27099 3.79052H8.96093V4.48046H8.27099V3.79052Z" fill="#008BD0"/>
<path d="M11.7207 5.1704H12.4106C12.7885 5.1704 13.1006 4.85829 13.1006 4.48046V3.79052C13.1006 3.4127 12.7885 3.10059 12.4106 3.10059H11.7207C11.3429 3.10059 11.0308 3.4127 11.0308 3.79052V4.48046C11.0308 4.85829 11.3388 5.1704 11.7207 5.1704ZM11.7207 3.79052H12.4106V4.48046H11.7207V3.79052Z" fill="#008BD0"/>
<path d="M8.27099 7.92626H8.96093C9.33876 7.92626 9.65087 7.61415 9.65087 7.23632V6.54638C9.65087 6.16856 9.33876 5.85645 8.96093 5.85645H8.27099C7.89317 5.85645 7.58105 6.16856 7.58105 6.54638V7.23632C7.58516 7.61825 7.89317 7.92626 8.27099 7.92626ZM8.27099 6.55049H8.96093V7.24043H8.27099V6.55049Z" fill="#008BD0"/>
<path d="M11.7207 7.92626H12.4106C12.7885 7.92626 13.1006 7.61415 13.1006 7.23632V6.54638C13.1006 6.16856 12.7885 5.85645 12.4106 5.85645H11.7207C11.3429 5.85645 11.0308 6.16856 11.0308 6.54638V7.23632C11.0308 7.61825 11.3388 7.92626 11.7207 7.92626ZM11.7207 6.55049H12.4106V7.24043H11.7207V6.55049Z" fill="#008BD0"/>
<path d="M8.27099 10.686H8.96093C9.33876 10.686 9.65087 10.3739 9.65087 9.9961V9.30615C9.65087 8.92833 9.33876 8.61621 8.96093 8.61621H8.27099C7.89317 8.61621 7.58105 8.92833 7.58105 9.30615V9.9961C7.58516 10.3739 7.89317 10.686 8.27099 10.686ZM8.27099 9.30615H8.96093V9.9961H8.27099V9.30615Z" fill="#008BD0"/>
<path d="M11.7207 10.686H12.4106C12.7885 10.686 13.1006 10.3739 13.1006 9.9961V9.30615C13.1006 8.92833 12.7885 8.61621 12.4106 8.61621H11.7207C11.3429 8.61621 11.0308 8.92833 11.0308 9.30615V9.9961C11.0308 10.3739 11.3388 10.686 11.7207 10.686ZM11.7207 9.30615H12.4106V9.9961H11.7207V9.30615Z" fill="#008BD0"/>
<path d="M8.27099 13.4414H8.96093C9.33876 13.4414 9.65087 13.1293 9.65087 12.7515V12.0615C9.65087 11.6837 9.33876 11.3716 8.96093 11.3716H8.27099C7.89317 11.3716 7.58105 11.6837 7.58105 12.0615V12.7515C7.58516 13.1334 7.89317 13.4414 8.27099 13.4414ZM8.27099 12.0656H8.96093V12.7556H8.27099V12.0656Z" fill="#008BD0"/>
<path d="M11.7207 13.4414H12.4106C12.7885 13.4414 13.1006 13.1293 13.1006 12.7515V12.0615C13.1006 11.6837 12.7885 11.3716 12.4106 11.3716H11.7207C11.3429 11.3716 11.0308 11.6837 11.0308 12.0615V12.7515C11.0308 13.1334 11.3388 13.4414 11.7207 13.4414ZM11.7207 12.0656H12.4106V12.7556H11.7207V12.0656Z" fill="#008BD0"/>
<path d="M17.2361 7.58495H17.926C18.3038 7.58495 18.616 7.27284 18.616 6.89501V6.20508C18.616 5.82725 18.3038 5.51514 17.926 5.51514H17.2361C16.8583 5.51514 16.5461 5.82725 16.5461 6.20508V6.89501C16.5461 7.27284 16.8542 7.58495 17.2361 7.58495ZM17.2361 6.20508H17.926V6.89501H17.2361V6.20508Z" fill="#008BD0"/>
<path d="M17.2361 10.3408H17.926C18.3038 10.3408 18.616 10.0287 18.616 9.65088V8.96094C18.616 8.58311 18.3038 8.271 17.926 8.271H17.2361C16.8583 8.271 16.5461 8.58311 16.5461 8.96094V9.65088C16.5461 10.0287 16.8542 10.3408 17.2361 10.3408ZM17.2361 8.96094H17.926V9.65088H17.2361V8.96094Z" fill="#008BD0"/>
<path d="M17.2361 13.0967H17.926C18.3038 13.0967 18.616 12.7846 18.616 12.4067V11.7168C18.616 11.339 18.3038 11.0269 17.926 11.0269H17.2361C16.8583 11.0269 16.5461 11.339 16.5461 11.7168V12.4067C16.5461 12.7887 16.8542 13.0967 17.2361 13.0967ZM17.2361 11.7209H17.926V12.4108H17.2361V11.7209Z" fill="#008BD0"/>
<path d="M17.2361 15.8564H17.926C18.3038 15.8564 18.616 15.5443 18.616 15.1665V14.4766C18.616 14.0987 18.3038 13.7866 17.926 13.7866H17.2361C16.8583 13.7866 16.5461 14.0987 16.5461 14.4766V15.1665C16.5461 15.5443 16.8542 15.8564 17.2361 15.8564ZM17.2361 14.4766H17.926V15.1665H17.2361V14.4766Z" fill="#008BD0"/>
<path d="M3.44555 5.51514H2.75561C2.37779 5.51514 2.06567 5.82725 2.06567 6.20508V6.89501C2.06567 7.27284 2.37779 7.58495 2.75561 7.58495H3.44555C3.82337 7.58495 4.13549 7.27284 4.13549 6.89501V6.20508C4.13549 5.82315 3.82748 5.51514 3.44555 5.51514ZM3.44555 6.89501H2.75561V6.20508H3.44555V6.89501Z" fill="#008BD0"/>
<path d="M3.44555 8.271H2.75561C2.37779 8.271 2.06567 8.58311 2.06567 8.96094V9.65088C2.06567 10.0287 2.37779 10.3408 2.75561 10.3408H3.44555C3.82337 10.3408 4.13549 10.0287 4.13549 9.65088V8.96094C4.13549 8.58311 3.82748 8.271 3.44555 8.271ZM3.44555 9.65088H2.75561V8.96094H3.44555V9.65088Z" fill="#008BD0"/>
<path d="M3.44555 11.0308H2.75561C2.37779 11.0308 2.06567 11.3429 2.06567 11.7207V12.4106C2.06567 12.7885 2.37779 13.1006 2.75561 13.1006H3.44555C3.82337 13.1006 4.13549 12.7885 4.13549 12.4106V11.7207C4.13549 11.3388 3.82748 11.0308 3.44555 11.0308ZM3.44555 12.4106H2.75561V11.7207H3.44555V12.4106Z" fill="#008BD0"/>
<path d="M3.44555 13.7866H2.75561C2.37779 13.7866 2.06567 14.0987 2.06567 14.4766V15.1665C2.06567 15.5443 2.37779 15.8564 2.75561 15.8564H3.44555C3.82337 15.8564 4.13549 15.5443 4.13549 15.1665V14.4766C4.13549 14.0987 3.82748 13.7866 3.44555 13.7866ZM3.44555 15.1665H2.75561V14.4766H3.44555V15.1665Z" fill="#008BD0"/>
</svg>
