<svg width="25" height="19" viewBox="0 0 25 19" fill="none" xmlns="http://www.w3.org/2000/svg">
<path d="M23.0313 0H1.96872C0.881766 0 0 0.881766 0 1.96872V16.9421C0 18.0291 0.881766 18.9108 1.96872 18.9108H23.0313C24.1182 18.9108 25 18.0291 25 16.9421V1.96872C25 0.881766 24.1182 0 23.0313 0ZM23.3917 0.942768L12.5499 11.7846L1.6138 0.942768H23.3917ZM0.942768 1.60825L8.8232 9.42214L0.942768 17.3026V1.60825ZM1.60825 17.9681L9.49423 10.0821L12.2172 12.7828C12.4002 12.9658 12.6996 12.9658 12.8827 12.7828L15.5446 10.1209L23.3917 17.9681H1.60825ZM24.0572 17.3026L16.2101 9.45541L24.0572 1.60825V17.3026Z" fill="#008BD0"/>
</svg>
