<svg width="21" height="20" viewBox="0 0 21 20" fill="none" xmlns="http://www.w3.org/2000/svg">
<path d="M19.4743 15.4304L15.4274 12.7312C14.9118 12.3914 14.2243 12.5047 13.8454 12.989L12.6657 14.5047C12.5134 14.7039 12.2399 14.7625 12.0212 14.6414L11.7985 14.5164C11.0563 14.1101 10.1306 13.6062 8.26338 11.7429C6.39619 9.87966 5.89228 8.95388 5.48994 8.20778L5.36884 7.98513C5.24384 7.76638 5.30244 7.48903 5.50166 7.33669L7.01728 6.157C7.50166 5.77809 7.61494 5.08669 7.27509 4.57497L4.56806 0.524188C4.22041 0.000750907 3.52119 -0.155499 2.98603 0.16872L1.29463 1.18434C0.763375 1.49684 0.37275 2.00466 0.204782 2.59841C-0.404593 4.82106 0.0524378 8.65309 5.70088 14.3015C10.1931 18.7937 13.5368 20.0007 15.8337 20.0007C16.361 20.0047 16.8884 19.9343 17.4001 19.7976C17.9938 19.6297 18.5017 19.239 18.8142 18.7078L19.8337 17.0164C20.1579 16.4773 19.9978 15.7781 19.4743 15.4304ZM19.2595 16.6765L18.2438 18.3679C18.0212 18.7507 17.654 19.0359 17.2282 19.157C15.1774 19.7195 11.5954 19.2547 6.17353 13.8328C0.751657 8.41091 0.282907 4.82497 0.845407 2.77419C0.9665 2.3445 1.25166 1.98122 1.63447 1.75466L3.32588 0.739032C3.56025 0.598407 3.86103 0.664813 4.01338 0.895282L5.47822 3.09841L6.70869 4.94606C6.85713 5.16872 6.80634 5.4695 6.59541 5.63356L5.07978 6.81325C4.61884 7.16481 4.48603 7.80544 4.77119 8.30934L4.89228 8.52809C5.31806 9.30934 5.84931 10.282 7.78291 12.2156C9.7165 14.1492 10.6892 14.6804 11.4704 15.1062L11.6892 15.2273C12.197 15.5125 12.8337 15.3797 13.1853 14.9187L14.3649 13.4031C14.529 13.1922 14.8298 13.1453 15.0524 13.2898L19.0993 15.989C19.3298 16.1375 19.4001 16.4422 19.2595 16.6765Z" fill="#008BD0"/>
<path d="M11.3337 3.33691C14.4626 3.34082 16.9978 5.87598 17.0017 9.00488C17.0017 9.18848 17.1501 9.33691 17.3337 9.33691C17.5173 9.33691 17.6658 9.18848 17.6658 9.00488C17.6619 5.50879 14.8298 2.67676 11.3337 2.67285C11.1501 2.67285 11.0017 2.82129 11.0017 3.00488C11.0017 3.18848 11.1462 3.33691 11.3337 3.33691Z" fill="#008BD0"/>
<path d="M11.3336 5.33643C13.357 5.34033 14.9976 6.98096 15.0015 9.0044C15.0015 9.188 15.15 9.33643 15.3336 9.33643C15.5172 9.33643 15.6656 9.188 15.6656 9.0044C15.6617 6.61377 13.7242 4.67236 11.3336 4.67236C11.15 4.67236 11.0015 4.8208 11.0015 5.0044C10.9976 5.18799 11.1461 5.33643 11.3336 5.33643Z" fill="#008BD0"/>
<path d="M11.3337 7.33691C12.2556 7.33691 12.9978 8.08301 13.0017 9.00488C13.0017 9.18848 13.1501 9.33691 13.3337 9.33691C13.5173 9.33691 13.6658 9.18848 13.6658 9.00488C13.6658 7.71582 12.6189 6.67285 11.3337 6.67285C11.1501 6.67285 11.0017 6.82129 11.0017 7.00488C11.0017 7.18848 11.1462 7.33691 11.3337 7.33691Z" fill="#008BD0"/>
</svg>
