<svg width="49" height="41" viewBox="0 0 49 41" fill="none" xmlns="http://www.w3.org/2000/svg">
<path d="M37.6739 39.741C43.3081 39.741 47.8755 35.1736 47.8755 29.5394C47.8755 23.9053 43.3081 19.3379 37.6739 19.3379C32.0398 19.3379 27.4724 23.9053 27.4724 29.5394C27.4724 35.1736 32.0398 39.741 37.6739 39.741Z" stroke="white" stroke-width="2" stroke-miterlimit="10" stroke-linecap="round" stroke-linejoin="round"/>
<path d="M7.13383 39.7403C10.5215 39.7403 13.2677 36.9941 13.2677 33.6065C13.2677 30.2189 10.5215 27.4727 7.13383 27.4727C3.74621 27.4727 1 30.2189 1 33.6065C1 36.9941 3.74621 39.7403 7.13383 39.7403Z" stroke="white" stroke-width="2" stroke-miterlimit="10" stroke-linecap="round" stroke-linejoin="round"/>
<path d="M3.06616 29.5385V23.0818C3.06616 20.9511 4.68033 19.2078 6.81103 19.0141L21.8551 17.7228L25.4708 3.00157C25.4708 1 27.5369 1 29.5385 1H39.74C41.9999 1 43.8077 2.80787 43.8077 5.0677V21.4031" stroke="white" stroke-width="2" stroke-miterlimit="10" stroke-linecap="round" stroke-linejoin="round"/>
<path d="M27.5369 31.6055H13.2031" stroke="white" stroke-width="2" stroke-miterlimit="10" stroke-linecap="round" stroke-linejoin="round"/>
<path d="M17.3354 7.13477V17.3363" stroke="white" stroke-width="2" stroke-miterlimit="10" stroke-linecap="round" stroke-linejoin="round"/>
<path d="M15.2693 5.06836L17.3354 7.13449" stroke="white" stroke-width="2" stroke-miterlimit="10" stroke-linecap="round" stroke-linejoin="round"/>
<path d="M22.436 15.2695H44.8407" stroke="white" stroke-width="2" stroke-miterlimit="10" stroke-linecap="round" stroke-linejoin="round"/>
</svg>
