<svg width="43" height="39" viewBox="0 0 43 39" fill="none" xmlns="http://www.w3.org/2000/svg">
<path d="M42.9896 16.1416C42.9554 15.9412 42.8528 15.7582 42.6904 15.6362L21.9445 0.150327C21.6795 -0.0501089 21.3205 -0.0501089 21.0555 0.150327L0.309578 15.6362C0.147166 15.7582 0.0445905 15.9325 0.0103986 16.1416C-0.0237933 16.3421 0.0274946 16.5512 0.147166 16.7081C0.395057 17.0479 0.865196 17.1264 1.19857 16.8736L21.5 1.71895L21.7308 1.88453L41.8014 16.8736C41.9297 16.9695 42.0835 17.0218 42.2459 17.0218C42.4853 17.0218 42.7161 16.9085 42.8528 16.7081C42.9725 16.5425 43.0238 16.3421 42.9896 16.1416Z" fill="white"/>
<path d="M38.1685 18.6165C38.1685 18.1895 37.8266 17.8496 37.4163 17.8496C37.006 17.8496 36.6641 18.1895 36.6641 18.6165V37.4574H26.7997V26.9912C26.7997 24.0108 24.4234 21.5882 21.5 21.5882C18.5766 21.5882 16.2002 24.0108 16.2002 26.9912V37.4574H6.33586V18.6165C6.33586 18.1895 6.00249 17.8496 5.58364 17.8496C5.16479 17.8496 4.83142 18.1895 4.83142 18.6165V38.2331C4.83142 38.6601 5.16479 38.9999 5.58364 38.9999H16.9524C17.3457 38.9999 17.6705 38.6862 17.7047 38.2941C17.7047 38.2679 17.7047 38.2505 17.7047 38.2331V26.9912C17.7047 24.8561 19.4057 23.1219 21.5 23.1219C23.5942 23.1219 25.2953 24.8561 25.2953 26.9912V38.2243C25.2953 38.2418 25.2953 38.2592 25.2953 38.2679V38.2766C25.3295 38.6775 25.6543 38.9912 26.0475 38.9912H37.4163C37.8351 38.9912 38.1685 38.6514 38.1685 38.2243V18.6165Z" fill="white"/>
</svg>
