<svg width="53" height="47" viewBox="0 0 53 47" fill="none" xmlns="http://www.w3.org/2000/svg">
<path d="M40.4899 12.55C40.4899 16.6 37.6096 19.9 33.9749 19.9C30.3403 19.9 27.46 16.6 27.46 12.55V8.35C27.46 4.3 30.3403 1 33.9749 1C37.6096 1 40.4899 4.3 40.4899 8.35V12.55Z" stroke="white" stroke-width="2" stroke-miterlimit="10" stroke-linecap="round" stroke-linejoin="round"/>
<path d="M16.6245 14.0492C19.6166 14.0492 22.0422 11.3965 22.0422 8.12422C22.0422 4.85193 19.6166 2.19922 16.6245 2.19922C13.6324 2.19922 11.2068 4.85193 11.2068 8.12422C11.2068 11.3965 13.6324 14.0492 16.6245 14.0492Z" stroke="white" stroke-width="2" stroke-miterlimit="10" stroke-linecap="round" stroke-linejoin="round"/>
<path d="M22.1107 27.3992C19.9848 25.6742 17.3788 24.6992 14.4985 24.6992C8.18924 24.6992 2.90867 29.6492 1.74283 36.1742C1.46852 37.5992 2.56578 38.8742 3.86878 38.8742H14.4985" stroke="white" stroke-width="2" stroke-miterlimit="10" stroke-linecap="round" stroke-linejoin="round"/>
<path d="M33.9749 27.0254C25.2654 27.0254 17.9961 34.0754 16.8302 43.3004C16.6245 44.7254 17.6532 46.0004 19.0247 46.0004H48.9937C50.2967 46.0004 51.3254 44.7254 51.1882 43.3004C49.8852 34.1504 42.6844 27.0254 33.9749 27.0254Z" stroke="white" stroke-width="2" stroke-miterlimit="10" stroke-linecap="round" stroke-linejoin="round"/>
</svg>
