<svg width="60" height="47" viewBox="0 0 60 47" fill="none" xmlns="http://www.w3.org/2000/svg">
<path d="M50.6221 15.4551C36.5822 16.9928 20.9824 16.8903 8.69751 15.4551" stroke="white" stroke-width="2" stroke-miterlimit="10" stroke-linecap="round" stroke-linejoin="round"/>
<path d="M50.622 38.6235V42.5191C50.622 43.9543 49.5495 45.082 48.1845 45.082H45.747C44.3821 45.082 43.3096 43.9543 43.3096 42.5191V36.0605" stroke="white" stroke-width="2" stroke-miterlimit="10" stroke-linecap="round" stroke-linejoin="round"/>
<path d="M8.69751 38.6235V42.5191C8.69751 43.9543 9.77 45.082 11.135 45.082H13.5725C14.9374 45.082 16.0099 43.9543 16.0099 42.5191V36.0605" stroke="white" stroke-width="2" stroke-miterlimit="10" stroke-linecap="round" stroke-linejoin="round"/>
<path d="M20.9824 29.5H38.2397" stroke="white" stroke-width="2" stroke-miterlimit="10" stroke-linecap="round" stroke-linejoin="round"/>
<path d="M16.1074 29.5004H10.745C9.575 29.5004 8.69751 28.0652 8.69751 26.9375" stroke="white" stroke-width="2" stroke-miterlimit="10" stroke-linecap="round" stroke-linejoin="round"/>
<path d="M43.2122 29.5004H48.5746C49.7446 29.5004 50.6221 28.0652 50.6221 26.9375" stroke="white" stroke-width="2" stroke-miterlimit="10" stroke-linecap="round" stroke-linejoin="round"/>
<path d="M7.43003 16.5829H3.72507C2.55508 16.5829 1.2876 15.6602 1.2876 14.43C1.2876 12.9948 1.2876 11.457 3.72507 11.457H9.86751" stroke="white" stroke-width="2" stroke-miterlimit="10" stroke-linecap="round" stroke-linejoin="round"/>
<path d="M51.8896 16.5829H55.7896C56.9596 16.5829 58.2271 15.6602 58.2271 14.43C58.2271 12.9948 58.2271 11.457 55.7896 11.457H49.4521" stroke="white" stroke-width="2" stroke-miterlimit="10" stroke-linecap="round" stroke-linejoin="round"/>
<path d="M55.5946 24.6813C55.5946 22.836 55.0096 21.1958 53.9372 19.7605C51.3047 16.275 48.1847 11.3542 47.3072 5.40821C46.6247 1.41007 41.5548 1 37.5573 1H28.4899H21.9575C17.96 1 12.8901 1.30755 12.2076 5.40821C11.7201 10.329 8.21012 16.3775 5.57765 19.8631C4.50516 21.2983 3.92017 22.9385 3.92017 24.7838V34.6254C3.92017 36.1632 6.45514 37.3934 7.91762 37.3934H28.5874H51.6947C53.1572 37.3934 55.6921 36.1632 55.6921 34.6254V24.6813H55.5946Z" stroke="white" stroke-width="2" stroke-miterlimit="10" stroke-linecap="round" stroke-linejoin="round"/>
</svg>
