<svg width="83" height="83" viewBox="0 0 83 83" fill="none" xmlns="http://www.w3.org/2000/svg">
<path d="M68.639 26.418H14.3595C12.2551 26.418 10.543 28.1301 10.543 30.2345V41.8658C10.543 43.9702 12.2551 45.6823 14.3595 45.6823H48.2842C48.786 45.6823 49.1928 45.2755 49.1928 44.7736C49.1928 44.2718 48.786 43.8649 48.2842 43.8649H14.3595C13.2572 43.8649 12.3604 42.9681 12.3604 41.8658V30.2345C12.3604 29.1322 13.2572 28.2354 14.3595 28.2354H68.639C69.7413 28.2354 70.6381 29.1322 70.6381 30.2345V38.958C70.6381 39.4598 71.0449 39.8667 71.5468 39.8667C72.0486 39.8667 72.4555 39.4598 72.4555 38.958V30.2345C72.4555 28.1301 70.7434 26.418 68.639 26.418Z" fill="#009BDE"/>
<path d="M68.5787 41.1064V39.927C68.5787 35.6847 65.1274 32.2334 60.8851 32.2334C56.6428 32.2334 53.1915 35.6847 53.1915 39.927V41.1064C52.0659 41.4866 51.2529 42.5518 51.2529 43.8041V53.4969C51.2529 55.0669 52.5302 56.3441 54.1002 56.3441H67.67C69.24 56.3441 70.5173 55.0669 70.5173 53.4969V43.8041C70.5173 42.5518 69.7043 41.4866 68.5787 41.1064ZM60.8851 34.0508C64.1253 34.0508 66.7613 36.6869 66.7613 39.927V40.9569H55.0089V39.927C55.0089 36.6869 57.6449 34.0508 60.8851 34.0508ZM68.6999 53.4969C68.6999 54.0648 68.2379 54.5267 67.67 54.5267H54.1002C53.5323 54.5267 53.0703 54.0648 53.0703 53.4969V43.8041C53.0703 43.2363 53.5323 42.7743 54.1002 42.7743H67.67C68.2379 42.7743 68.6999 43.2363 68.6999 43.8041V53.4969Z" fill="#009BDE"/>
<path d="M25.2891 33.6575C25.0381 33.2228 24.4824 33.074 24.0478 33.325L22.0531 34.4766V32.1733C22.0531 31.6715 21.6463 31.2646 21.1444 31.2646C20.6426 31.2646 20.2357 31.6715 20.2357 32.1733V34.4766L18.2411 33.325C17.8065 33.0739 17.2507 33.2229 16.9998 33.6575C16.7489 34.0921 16.8978 34.6479 17.3324 34.8988L19.3271 36.0504L17.3324 37.2021C16.8978 37.453 16.7489 38.0088 16.9998 38.4433C17.1681 38.7349 17.4736 38.8978 17.7876 38.8978C17.9417 38.8978 18.098 38.8586 18.2411 38.7759L20.2357 37.6243V39.9276C20.2357 40.4294 20.6426 40.8363 21.1444 40.8363C21.6463 40.8363 22.0531 40.4294 22.0531 39.9276V37.6243L24.0478 38.7759C24.1909 38.8586 24.3472 38.8978 24.5013 38.8978C24.8153 38.8978 25.1208 38.7349 25.2891 38.4433C25.54 38.0088 25.3911 37.453 24.9565 37.2021L22.9618 36.0504L24.9565 34.8988C25.3911 34.6479 25.54 34.0921 25.2891 33.6575Z" fill="#009BDE"/>
<path d="M36.9199 33.6575C36.669 33.2228 36.1132 33.074 35.6786 33.325L33.684 34.4766V32.1733C33.684 31.6715 33.2771 31.2646 32.7753 31.2646C32.2735 31.2646 31.8666 31.6715 31.8666 32.1733V34.4766L29.872 33.325C29.4374 33.0739 28.8816 33.2229 28.6307 33.6575C28.3798 34.0921 28.5287 34.6479 28.9633 34.8988L30.9579 36.0504L28.9633 37.2021C28.5287 37.453 28.3798 38.0088 28.6307 38.4433C28.799 38.7349 29.1044 38.8978 29.4185 38.8978C29.5726 38.8978 29.7289 38.8586 29.872 38.7759L31.8666 37.6243V39.9276C31.8666 40.4294 32.2735 40.8363 32.7753 40.8363C33.2771 40.8363 33.684 40.4294 33.684 39.9276V37.6243L35.6786 38.7759C35.8217 38.8586 35.978 38.8978 36.1321 38.8978C36.4462 38.8978 36.7516 38.7349 36.9199 38.4433C37.1708 38.0088 37.0219 37.453 36.5873 37.2021L34.5927 36.0504L36.5873 34.8988C37.0219 34.6479 37.1708 34.0921 36.9199 33.6575Z" fill="#009BDE"/>
<path d="M48.5518 33.6575C48.3008 33.2228 47.7451 33.074 47.3105 33.325L45.3158 34.4766V32.1733C45.3158 31.6715 44.909 31.2646 44.4071 31.2646C43.9053 31.2646 43.4984 31.6715 43.4984 32.1733V34.4766L41.5038 33.325C41.0692 33.0739 40.5134 33.2229 40.2625 33.6575C40.0116 34.0921 40.1605 34.6479 40.5951 34.8988L42.5897 36.0504L40.5951 37.2021C40.1605 37.453 40.0116 38.0088 40.2625 38.4433C40.4308 38.7349 40.7362 38.8978 41.0503 38.8978C41.2044 38.8978 41.3607 38.8586 41.5038 38.7759L43.4984 37.6243V39.9276C43.4984 40.4294 43.9053 40.8363 44.4071 40.8363C44.909 40.8363 45.3158 40.4294 45.3158 39.9276V37.6243L47.3105 38.7759C47.4536 38.8586 47.6099 38.8978 47.764 38.8978C48.078 38.8978 48.3835 38.7349 48.5518 38.4433C48.8027 38.0088 48.6538 37.453 48.2192 37.2021L46.2245 36.0504L48.2192 34.8988C48.6538 34.6479 48.8027 34.0921 48.5518 33.6575Z" fill="#009BDE"/>
<path d="M60.8844 44.834C59.3144 44.834 58.0371 46.1112 58.0371 47.6812C58.0371 48.9335 58.8501 49.9988 59.9757 50.379V51.5583C59.9757 52.0602 60.3825 52.467 60.8844 52.467C61.3862 52.467 61.793 52.0602 61.793 51.5583V50.379C62.9186 49.9988 63.7316 48.9335 63.7316 47.6812C63.7316 46.1112 62.4543 44.834 60.8844 44.834ZM60.8844 48.7111C60.3165 48.7111 59.8545 48.2491 59.8545 47.6812C59.8545 47.1134 60.3165 46.6514 60.8844 46.6514C61.4522 46.6514 61.9142 47.1134 61.9142 47.6812C61.9142 48.2491 61.4522 48.7111 60.8844 48.7111Z" fill="#009BDE"/>
</svg>
