<svg width="83" height="83" viewBox="0 0 83 83" fill="none" xmlns="http://www.w3.org/2000/svg">
<path d="M38.2752 31.6964C38.2752 39.1642 44.3507 45.2398 51.8186 45.2398C59.2864 45.2398 65.3619 39.1642 65.3619 31.6964C65.3619 24.2286 59.2864 18.153 51.8186 18.153C44.3507 18.153 38.2752 24.2286 38.2752 31.6964ZM63.2982 31.6964C63.2982 38.0263 58.1485 43.176 51.8186 43.176C45.4887 43.176 40.3389 38.0263 40.3389 31.6964C40.3389 25.3665 45.4887 20.2168 51.8186 20.2168C58.1485 20.2168 63.2982 25.3665 63.2982 31.6964ZM51.8186 24.7313C52.3884 24.7313 52.8504 25.1933 52.8504 25.7631V26.1986C54.0514 26.6246 54.9142 27.7715 54.9142 29.1167C54.9142 29.6866 54.4522 30.1486 53.8823 30.1486C53.3125 30.1486 52.8504 29.6866 52.8504 29.1167C52.8504 28.5478 52.3875 28.0848 51.8186 28.0848C51.2496 28.0848 50.7867 28.5478 50.7867 29.1167V29.5342C50.7867 29.988 51.0777 30.3837 51.5108 30.5192L52.7418 30.9038C54.0412 31.31 54.9142 32.4974 54.9142 33.8586V34.2761C54.9142 35.7619 53.8618 37.0062 52.4635 37.3037V37.6297C52.4635 38.1995 52.0015 38.6616 51.4316 38.6616C50.8618 38.6616 50.3997 38.1995 50.3997 37.6297V37.026C49.4047 36.5106 48.7229 35.4718 48.7229 34.2761C48.7229 33.7062 49.185 33.2442 49.7548 33.2442C50.3247 33.2442 50.7867 33.7062 50.7867 34.2761C50.7867 34.845 51.2496 35.308 51.8186 35.308C52.3875 35.308 52.8504 34.845 52.8504 34.2761V33.8586C52.8504 33.4048 52.5594 33.0091 52.1263 32.8736L50.8953 32.489C49.5959 32.0828 48.7229 30.8954 48.7229 29.5342V29.1167C48.7229 27.7715 49.5857 26.6246 50.7867 26.1986V25.7631C50.7867 25.1933 51.2487 24.7313 51.8186 24.7313ZM68.5865 52.0759V65.2323C68.5865 69.2153 65.3462 72.4555 61.3634 72.4555H21.6362C17.6534 72.4555 14.4131 69.2153 14.4131 65.2323V14.6705C14.4131 12.3945 16.2647 10.543 18.5406 10.543H52.0765C54.3525 10.543 56.204 12.3945 56.204 14.6705C56.204 15.2403 55.742 15.7023 55.1722 15.7023C54.6023 15.7023 54.1403 15.2403 54.1403 14.6705C54.1403 13.5326 53.2144 12.6067 52.0765 12.6067H18.5406C17.4027 12.6067 16.4768 13.5326 16.4768 14.6705V65.2323C16.4768 68.0772 18.7913 70.3917 21.6362 70.3917H56.3152C54.9744 69.0797 54.1403 67.252 54.1403 65.2323V49.1093C54.1403 48.5394 54.6023 48.0774 55.1722 48.0774C55.742 48.0774 56.204 48.5394 56.204 49.1093V65.2323C56.204 68.0772 58.5185 70.3917 61.3634 70.3917C64.2083 70.3917 66.5228 68.0772 66.5228 65.2323V52.0759C66.5228 50.938 65.5969 50.0122 64.459 50.0122H60.0736C59.5037 50.0122 59.0417 49.5502 59.0417 48.9803C59.0417 48.4105 59.5037 47.9484 60.0736 47.9484H64.459C66.735 47.9484 68.5865 49.8 68.5865 52.0759ZM23.442 38.2746C23.442 37.7048 23.904 37.2427 24.4739 37.2427H33.2448C33.8147 37.2427 34.2767 37.7048 34.2767 38.2746C34.2767 38.8445 33.8147 39.3065 33.2448 39.3065H24.4739C23.904 39.3065 23.442 38.8445 23.442 38.2746ZM23.442 26.666C23.442 26.0962 23.904 25.6341 24.4739 25.6341H33.2448C33.8147 25.6341 34.2767 26.0962 34.2767 26.666C34.2767 27.2359 33.8147 27.6979 33.2448 27.6979H24.4739C23.904 27.6979 23.442 27.2359 23.442 26.666ZM47.1751 49.8832C47.1751 50.4531 46.7131 50.9151 46.1432 50.9151H24.4739C23.904 50.9151 23.442 50.4531 23.442 49.8832C23.442 49.3134 23.904 48.8513 24.4739 48.8513H46.1432C46.7131 48.8513 47.1751 49.3134 47.1751 49.8832ZM47.1751 60.7179C47.1751 61.2878 46.7131 61.7498 46.1432 61.7498H24.4739C23.904 61.7498 23.442 61.2878 23.442 60.7179C23.442 60.148 23.904 59.686 24.4739 59.686H46.1432C46.7131 59.686 47.1751 60.148 47.1751 60.7179Z" fill="#009BDE"/>
</svg>
