<svg width="144" height="120" viewBox="0 0 144 120" fill="none" xmlns="http://www.w3.org/2000/svg">
<path d="M92.8703 113.543L107.153 119.374C108.2 119.801 109.274 120 110.377 120C113.913 120 117.08 117.867 118.41 114.567L123.614 101.681H126.753C131.505 101.681 135.379 97.7843 135.379 93.0055V72.4681L143.044 53.4382C143.921 51.2764 143.892 48.9155 142.987 46.7821C142.082 44.6487 140.414 42.9989 138.264 42.1171L135.379 40.9224V27.0411C135.379 22.2623 131.505 18.3653 126.753 18.3653H79.8885L52.9916 7.41391C52.5957 7.24324 52.1714 7.27168 51.8038 7.41391C51.4078 7.58458 51.125 7.86903 50.9553 8.26727C50.7856 8.6655 50.8139 9.09218 50.9553 9.46196C51.125 9.8602 51.4078 10.1446 51.8038 10.3153L71.5734 18.3653H23.4079L28.1311 6.64589C29.2624 3.80137 32.4867 2.436 35.3149 3.57381L43.9412 7.10101C44.3371 7.27168 44.7614 7.24324 45.129 7.10101C45.525 6.93034 45.8078 6.64589 45.9775 6.24766C46.2886 5.45119 45.921 4.54095 45.129 4.1996L36.5028 0.643953C34.3816 -0.237848 32.0341 -0.209402 29.8846 0.700844C27.7634 1.61109 26.0948 3.28936 25.2463 5.42275L20.0422 18.3369H16.9311C12.1514 18.3369 8.27662 22.2339 8.27662 27.0411V47.5785L0.640276 66.5799C-0.236489 68.7418 -0.208207 71.1027 0.696841 73.2361C1.60189 75.3695 3.27057 77.0193 5.42006 77.9011L8.33318 79.0958V93.0055C8.33318 97.7843 12.2079 101.681 16.9594 101.681H26.0099C26.8584 101.681 27.5655 100.97 27.5655 100.117C27.5655 99.2635 26.8584 98.5523 26.0099 98.5523H16.9311C13.8766 98.5523 11.416 96.0491 11.416 93.0055V54.2063H41.5371L40.2644 55.2303C35.3715 59.1273 28.9513 65.755 26.2362 75.3126C26.0099 76.1091 26.4624 76.9624 27.2261 77.2184C27.622 77.3606 28.0745 77.3322 28.4422 77.1331C28.8382 76.934 29.121 76.5926 29.2341 76.166C32.1473 65.8972 40.0099 59.1557 44.4503 56.0552L45.327 55.4294V98.5523H34.4947C33.6462 98.5523 32.9392 99.2635 32.9392 100.117C32.9392 100.97 33.6462 101.681 34.4947 101.681H63.7391L84.9511 110.329C85.1491 110.414 85.3471 110.442 85.5451 110.442C86.1956 110.442 86.7613 110.044 86.9875 109.475C87.1572 109.077 87.1289 108.65 86.9875 108.281C86.8461 107.911 86.535 107.598 86.139 107.427L72.0542 101.681H120.22L115.497 113.401C114.931 114.766 113.884 115.847 112.527 116.416C111.169 116.985 109.67 117.013 108.313 116.444L94.0299 110.613C93.8319 110.528 93.634 110.499 93.436 110.499C92.8138 110.499 92.2198 110.869 91.9936 111.466C91.8239 111.865 91.8521 112.291 91.9936 112.661C92.1915 113.088 92.4744 113.372 92.8703 113.543ZM135.379 44.3358L137.105 45.0469C138.462 45.6158 139.537 46.6683 140.103 48.0337C140.668 49.399 140.696 50.9066 140.131 52.272L135.351 64.1052V44.3358H135.379ZM8.27662 75.6824L6.55137 74.9713C5.1938 74.4024 4.11905 73.3499 3.5534 71.9845C2.98774 70.6191 2.95946 69.1115 3.52512 67.7462L8.3049 55.913V75.6824H8.27662ZM43.121 50.8782C34.5796 50.0248 26.9432 46.5545 25.3311 42.7713C24.6523 41.1784 25.1331 39.5854 26.7453 37.9072C27.8766 36.7409 29.1776 36.2289 30.5351 36.428C33.2503 36.8262 36.7856 39.8983 40.4624 45.0753C41.5371 46.5829 42.6119 48.2612 43.6583 50.0248L44.224 50.992L43.121 50.8782ZM45.327 46.6683L44.2806 45.1038C40.9998 40.1543 36.0503 34.0955 30.9877 33.3275C28.5836 32.9577 26.3493 33.7826 24.4826 35.7453C23.0402 37.2529 20.8907 40.2966 22.4463 43.9944C23.3796 46.2132 25.5574 48.2897 28.725 49.9964L30.7048 51.0773H11.416V27.0411C11.416 23.969 13.9049 21.4943 16.9311 21.4943H45.327V46.6683ZM48.4381 21.4658H126.725C129.779 21.4658 132.24 23.969 132.24 27.0127V51.0488H63.0603L65.0401 49.9679C68.2078 48.2612 70.3855 46.1847 71.3189 43.966C72.8744 40.2681 70.7249 37.196 69.2825 35.7169C67.4158 33.7826 65.1815 32.9577 62.7775 33.299C57.7149 34.0671 52.7654 40.1259 49.4846 45.0753L48.4381 46.6398V21.4658ZM50.6725 50.8782L49.5694 50.992L50.1351 50.0248C51.1815 48.2612 52.228 46.6114 53.3028 45.1322C57.0078 39.9552 60.5431 36.8547 63.2583 36.4565C64.6159 36.2573 65.9169 36.7694 67.0482 37.9356C68.6603 39.6139 69.1128 41.2068 68.4623 42.7997C66.8502 46.5545 59.2138 50.0533 50.6725 50.8782ZM48.4381 98.5239V55.401L49.3149 56.0267C53.7553 59.1273 61.6179 65.8972 64.531 76.1375C64.6441 76.5357 64.927 76.8771 65.3229 77.0762C65.7189 77.2753 66.1431 77.3038 66.5674 77.1615C67.331 76.9055 67.7835 76.0237 67.5573 75.2557C64.8421 65.7266 58.4502 59.0704 53.529 55.1734L52.2563 54.1494H132.268V92.9202C132.268 95.9923 129.779 98.467 126.753 98.467H48.4381V98.5239Z" fill="white"/>
<path d="M110.208 90.9008C111.056 90.9008 111.763 90.1896 111.763 89.3363V86.89L112.216 86.8046C113.771 86.4633 114.761 85.7522 115.355 85.2117C116.628 84.017 117.391 82.1681 117.391 80.3191C117.391 78.8115 116.939 77.4462 116.062 76.3937C114.874 74.943 112.979 74.0612 110.406 73.7767C107.323 73.4354 107.012 71.6433 107.012 70.8753C107.012 69.3962 107.86 67.6325 110.236 67.6325C112.159 67.6325 113.008 68.7988 113.234 69.1686L113.262 69.2539C113.517 69.8513 114.082 70.2211 114.705 70.2211C115.412 70.2211 115.808 69.7944 115.977 69.5384C116.288 69.0548 116.345 68.4575 116.09 67.9454C115.581 66.8645 114.28 65.3854 112.187 64.788L111.763 64.6742V62.1426C111.763 61.2893 111.056 60.5781 110.208 60.5781C109.359 60.5781 108.652 61.2893 108.652 62.1426V64.6458L108.256 64.7596C106.927 65.1294 105.824 65.9258 105.06 67.0636C103.957 68.6566 103.872 70.3917 103.872 70.8753C103.872 73.35 105.484 76.3937 110.066 76.9057C114.28 77.3608 114.28 79.608 114.28 80.3476C114.28 81.1156 113.997 82.225 113.234 82.9361C112.499 83.6188 111.395 83.9317 109.981 83.8463C107.775 83.7041 106.785 82.6232 106.361 81.9405L106.248 81.9689L106.107 81.3716C105.937 80.6605 105.315 80.1769 104.579 80.1769C104.07 80.1769 103.618 80.4329 103.307 80.8596C102.996 81.2863 102.939 81.8267 103.109 82.3103C103.307 82.9361 104.41 85.8944 108.2 86.7477L108.652 86.8615V89.3647C108.652 90.2181 109.331 90.9008 110.208 90.9008Z" fill="white"/>
</svg>
